<?xml version="1.0" encoding="utf-8" ?>
<svg baseProfile="full" height="200mm" version="1.1" viewBox="0,0,200,200" width="200mm" xmlns="http://www.w3.org/2000/svg" xmlns:ev="http://www.w3.org/2001/xml-events" xmlns:xlink="http://www.w3.org/1999/xlink"><defs /><rect fill="#1a1a1a" height="200" width="200" x="0" y="0" /><circle cx="100.0" cy="100.0" fill="none" r="48.770048265768416" stroke="darkgrey" stroke-opacity="0.2" stroke-width="0.3" /><circle cx="100.0" cy="100.0" fill="none" r="76.54009653153683" stroke="darkgrey" stroke-opacity="0.2" stroke-width="0.3" /><text alignment-baseline="middle" fill="#e1ed5e" style="dominant-baseline: central; font-size:9.0px; font-family:Arial;" text-anchor="middle" x="100.0" y="100.0">2018</text><line stroke="#e1ed5e" stroke-width="0.3" x1="100.0" x2="100.0" y1="15.0" y2="10.0" /><path d="M 100.0 14.0 a86.0,86.0 0 0,1 42.46469731375804,11.215312516191453" fill="none" id="id85" stroke="none" /><text fill="#e1ed5e" style="font-size:6.75px; font-family:Arial;" text-anchor="middle"><textPath startOffset="22.20632615414155" xlink:href="#id85">January</textPath></text><path d="M 101.80526077348638 79.07773832637324 l 4.28467228367659 -49.65766498747563 a70.84217198905831,70.84217198905831 0 0,0 1.2140151257720677,0.11528536443276963 l -5.138812536538902 49.576554078527685" fill="#36ff6f" stroke="none" /><path d="M 103.95276090670814 79.375362276772 l 4.526503328936527 -23.618299592537177 a45.04814562559274,45.04814562559274 0 0,0 0.7603131429012688,0.15251166381130749 l -4.932382881304921 23.53688397264866" fill="#ff6709" stroke="none" /><path d="M 104.66035177308747 79.52364482259891 l 12.573420503056706 -55.24428981995941 a77.65706011485557,77.65706011485557 0 0,0 1.300853061358741,0.3078698907468586 l -13.52249725137797 55.01967401707169" fill="#42ffd6" stroke="none" /><path d="M 106.40334571778207 80.00007090966166 l 7.500430163991368 -23.42651451885383 a45.59792745633219,45.59792745633219 0 0,0 0.7454548459953786,0.24576474239427423 l -7.902567832229164 23.29393605220032" fill="#ff710a" stroke="none" /><path d="M 106.74666289553966 80.11325718540242 l 13.267027728279734 -39.10644009216203 a62.295613343608316,62.295613343608316 0 0,0 1.0125054239090276,0.35324326133671075 l -13.938215156252035 38.87227597765312" fill="#72ff27" stroke="none" /><path d="M 108.76106565485865 80.91482961587045 l 10.086274920335551 -21.972016074211524 a45.176485107103545,45.176485107103545 0 0,0 0.7039395363782617,0.330509051128262 l -10.462992668013412 21.79514204044326" fill="#ff6909" stroke="none" /><line stroke="#e1ed5e" stroke-width="0.3" x1="143.23703022742887" x2="145.7803849466894" y1="26.81831364943548" y2="22.513508569990506" /><path d="M 143.74570117128098 25.957352633546492 a86.0,86.0 0 0,1 28.547481713284135,27.462654790039103" fill="none" id="id86" stroke="none" /><text fill="#e1ed5e" style="font-size:6.75px; font-family:Arial;" text-anchor="middle"><textPath startOffset="19.985693538727396" xlink:href="#id86">February</textPath></text><line stroke="#e1ed5e" stroke-width="0.3" x1="172.23445277983987" x2="176.4835382374775" y1="55.19839476539836" y2="52.563006222186495" /><path d="M 173.08426987136738 54.67131705675599 a86.0,86.0 0 0,1 12.851231095245387,41.99856678651699" fill="none" id="id87" stroke="none" /><text fill="#e1ed5e" style="font-size:6.75px; font-family:Arial;" text-anchor="middle"><textPath startOffset="22.20632615414155" xlink:href="#id87">March</textPath></text><path d="M 119.34039704204932 91.81776055985345 l 36.121542003379965 -15.281749644352097 a60.22113803670921,60.22113803670921 0 0,0 0.39567671619517103,0.9581625530622091 l -36.37924040646133 14.657712520836585" fill="#91ff23" stroke="none" /><line stroke="#e1ed5e" stroke-width="0.3" x1="184.98032266829074" x2="189.97916517819016" y1="98.17113171792111" y2="98.06355123074" /><path d="M 185.9800911702706 98.14961562048488 a86.0,86.0 0 0,1 -9.607161424134198,41.387399972396054" fill="none" id="id88" stroke="none" /><text fill="#e1ed5e" style="font-size:6.75px; font-family:Arial;" text-anchor="middle"><textPath startOffset="21.466115282336823" xlink:href="#id88">April</textPath></text><path d="M 120.95626037817324 101.35467743843564 l 41.57898689464577 2.687794217228455 a62.665769990956505,62.665769990956505 0 0,0 -0.07884977605286418,1.0758425478025888 l -41.52656055992857 -3.403109901527814" fill="#6dff28" stroke="none" /><path d="M 118.64920377521936 109.65438752849418 l 35.11970066120704 18.180894163349773 a60.54665962014633,60.54665962014633 0 0,0 -0.48710506086594624,0.9214192048233059 l -34.8015430921162 -18.78272838325921" fill="#8cff24" stroke="none" /><line stroke="#e1ed5e" stroke-width="0.3" x1="174.80103733775053" x2="179.2010983576182" y1="140.37084112569926" y2="142.7455964860345" /><path d="M 175.68104954172406 140.8457921977663 a86.0,86.0 0 0,1 -30.038265399797805,32.042727171017184" fill="none" id="id89" stroke="none" /><text fill="#e1ed5e" style="font-size:6.75px; font-family:Arial;" text-anchor="middle"><textPath startOffset="22.206326154141568" xlink:href="#id89">May</textPath></text><path d="M 114.81725581225074 114.88116024355365 l 35.09192437386664 35.24327017627782 a70.73460816151353,70.73460816151353 0 0,0 -0.8702042565336455,0.851678018735757 l -34.4800701649572 -35.84209829793615" fill="#36ff6d" stroke="none" /><line stroke="#e1ed5e" stroke-width="0.3" x1="143.8653032363475" x2="146.44561519142675" y1="172.8068346515853" y2="177.08958963109032" /><path d="M 144.38136562736335 173.6633856474863 a86.0,86.0 0 0,1 -40.68145358897372,12.25698825130547" fill="none" id="id90" stroke="none" /><text fill="#e1ed5e" style="font-size:6.75px; font-family:Arial;" text-anchor="middle"><textPath startOffset="21.466115282336833" xlink:href="#id90">June</textPath></text><path d="M 110.21172684928248 118.3499491758327 l 27.626325102659155 49.643088679408415 a77.81241142839673,77.81241142839673 0 0,0 -1.1759944924221133,0.6412459622285201 l -26.767707798368395 -50.1112752933967" fill="#42ffd9" stroke="none" /><path d="M 107.2578585660854 119.70592522655815 l 18.07378508072934 49.07241634963869 a73.29496872106036,73.29496872106036 0 0,0 -1.1876592457158222,0.42585235062170396 l -17.226406274383784 -49.376256241300354" fill="#3aff95" stroke="none" /><line stroke="#e1ed5e" stroke-width="0.3" x1="102.19456741930631" x2="102.32365962044197" y1="184.97166512339345" y2="189.96999836594603" /><path d="M 102.22038585953345 185.97133177190398 a86.0,86.0 0 0,1 -42.740103519485714,-10.115201625700543" fill="none" id="id91" stroke="none" /><text fill="#e1ed5e" style="font-size:6.75px; font-family:Arial;" text-anchor="middle"><textPath startOffset="22.20632615414155" xlink:href="#id91">July</textPath></text><path d="M 94.46302465271185 120.25689768951611 l -8.904895316593567 32.57835588024329 a54.773457514137824,54.773457514137824 0 0,0 -0.9073323183006992,-0.2564211762493392 l 9.46435880299888 -32.42024591065543" fill="#e9ff1a" stroke="none" /><line stroke="#e1ed5e" stroke-width="0.3" x1="58.666819895761336" x2="56.23545636021788" y1="174.27360380694188" y2="178.64263932499728" /><path d="M 58.180547188652646 175.14741091055294 a86.0,86.0 0 0,1 -31.652253787137756,-30.449443065178592" fill="none" id="id92" stroke="none" /><text fill="#e1ed5e" style="font-size:6.75px; font-family:Arial;" text-anchor="middle"><textPath startOffset="22.20632615414155" xlink:href="#id92">August</textPath></text><path d="M 85.44109423537348 115.13401014063109 l -20.608493339389277 21.422567892378037 a50.72602248574805,50.72602248574805 0 0,0 -0.6240509678561686,-0.6107652173651814 l 20.97419425962124 -21.064652572090285" fill="#ffd013" stroke="none" /><path d="M 84.43433777217949 114.09645910891817 l -29.870317490275127 27.050934480609236 a61.29874592644354,61.29874592644354 0 0,0 -0.7015529100512227,-0.7882021315538923 l 30.331529249974686 -26.53275817931448" fill="#81ff25" stroke="none" /><path d="M 83.95833913139862 113.55231037782056 l -18.631025465967934 15.739856479953774 a45.3897148799056,45.3897148799056 0 0,0 -0.4990793680696226,-0.6011732493648454 l 18.899200833931094 -15.416821973475168" fill="#ff6d0a" stroke="none" /><line stroke="#e1ed5e" stroke-width="0.3" x1="26.63291911575756" x2="22.317208475507996" y1="142.92168965132927" y2="145.44649492493687" /><path d="M 25.769776987707644 143.4266507060508 a86.0,86.0 0 0,1 -11.730757126820373,-40.83630448921669" fill="none" id="id93" stroke="none" /><text fill="#e1ed5e" style="font-size:6.75px; font-family:Arial;" text-anchor="middle"><textPath startOffset="21.46611528233685" xlink:href="#id93">September</textPath></text><path d="M 80.87730276802145 108.67885076344099 l -21.95718678987074 9.965286017058872 a45.11275548598839,45.11275548598839 0 0,0 -0.31484173851473624,-0.7098850045591963 l 22.125469613116753 -9.58585267600698" fill="#ff6809" stroke="none" /><path d="M 79.0235259727143 100.99374915477108 l -27.81567009055979 1.3177523832617992 a48.84686650110663,48.84686650110663 0 0,0 -0.0325596165675056,-0.8402190282033103 l 27.834231839978496 -0.8387561080444922" fill="#ffae10" stroke="none" /><line stroke="#e1ed5e" stroke-width="0.3" x1="15.007084014347285" x2="10.007500721073583" y1="101.09737516637583" y2="101.16192664675087" /><path d="M 14.007167355692545 101.11028546245083 a86.0,86.0 0 0,1 10.666146001902534,-42.60595125391555" fill="none" id="id94" stroke="none" /><text fill="#e1ed5e" style="font-size:6.75px; font-family:Arial;" text-anchor="middle"><textPath startOffset="22.20632615414155" xlink:href="#id94">October</textPath></text><path d="M 79.00019446554 99.90962569577889 l -24.62317106113857 -0.10596774092580877 a45.62339908030995,45.62339908030995 0 0,0 0.01013924184635378,-0.7852954548366312 l 24.617698812174503 0.5297994538229119" fill="#ff720a" stroke="none" /><path d="M 79.01574976396665 99.18683210126434 l -33.307118179661686 -1.290695593049472 a54.33211689268876,54.33211689268876 0 0,0 0.044258403669984354,-0.9342249506481094 l 33.279966167758204 1.8638316503205905" fill="#f0ff19" stroke="none" /><path d="M 79.3925641242962 95.95851677861259 l -38.0751073336291 -7.467203021740875 a59.80042421720763,59.80042421720763 0 0,0 0.20679756720169654,-1.008418380336611 l 37.940930470512406 8.121497058240887" fill="#98ff23" stroke="none" /><path d="M 79.62865764111835 94.90015583598534 l -32.34130952003158 -8.096454112186413 a54.33935918192228,54.33935918192228 0 0,0 0.23496253035883038,-0.905406476720894 l 32.197150657802446 8.65195701445617" fill="#f0ff19" stroke="none" /><path d="M 80.2630227832202 92.82701384747504 l -32.35284298938986 -11.75795524354213 a55.42318929159895,55.42318929159895 0 0,0 0.3335827055744684,-0.8938358040527491 l 32.14565569531377 12.31311418462422" fill="#deff1b" stroke="none" /><path d="M 80.52162464483688 92.15188598940014 l -32.721297429880465 -13.183875355209224 a56.27744144458885,56.27744144458885 0 0,0 0.3697650684230972,-0.8954154426886606 l 32.48951067457117 13.745165368351197" fill="#d0ff1d" stroke="none" /><path d="M 80.803312248108 91.48605970444005 l -32.40909082474349 -14.373785096757137 a56.45355928668136,56.45355928668136 0 0,0 0.4016205217429647,-0.8849175828430867 l 32.15686798603717 14.929524688442294" fill="#cdff1d" stroke="none" /><line stroke="#e1ed5e" stroke-width="0.3" x1="26.266209847984243" x2="21.928928074336255" y1="57.711370442889674" y2="55.22380399835377" /><path d="M 25.398753493254645 57.213857153982495 a86.0,86.0 0 0,1 29.58750427330803,-30.492523968695096" fill="none" id="id95" stroke="none" /><text fill="#e1ed5e" style="font-size:6.75px; font-family:Arial;" text-anchor="middle"><textPath startOffset="21.46611528233685" xlink:href="#id95">November</textPath></text><path d="M 81.96595687620814 89.24020034530311 l -40.69290874719782 -24.27894524157314 a68.38544084791315,68.38544084791315 0 0,0 0.6118354267883472,-1.0056965703465195 l 40.26895752212326 24.975809585126733" fill="#32ff47" stroke="none" /><path d="M 83.17141714833178 87.43820079747576 l -28.453933563771667 -21.239613763118037 a56.507006745964446,56.507006745964446 0 0,0 0.5885448533933816,-0.7744560386134334 l 28.084112770154174 21.726254577612497" fill="#ccff1d" stroke="none" /><path d="M 84.5562425177563 85.77008943001954 l -13.89189224773464 -12.800018684594715 a39.8898160009208,39.8898160009208 0 0,0 0.4696221921911147,-0.5009602111690538 l 13.66950273357307 13.037248312641818" fill="#ff0000" stroke="none" /><path d="M 85.83668400450813 84.49514656593479 l -24.090126020263064 -26.371922597167753 a56.71851723046693,56.71851723046693 0 0,0 0.7265075207068658,-0.6522656253473573 l 23.632607511960227 26.78268723128439" fill="#c9ff1d" stroke="none" /><path d="M 86.37877921826538 84.01681056812374 l -40.863662345203856 -47.94956829562878 a84.0,84.0 0 0,0 1.1085698521635585,-0.9283953704247505 l 40.03223495608118 48.64586482344734" fill="#4dd2ff" stroke="none" /><path d="M 89.00827224532344 82.1063720568725 l -18.640802655018494 -30.34569220732844 a56.6137692355816,56.6137692355816 0 0,0 0.8347509776064908,-0.5029281239154791 l 18.11568961119435 30.662066940702537" fill="#caff1d" stroke="none" /><line stroke="#e1ed5e" stroke-width="0.3" x1="56.762969772571076" x2="54.21961505331055" y1="26.818313649435495" y2="22.513508569990535" /><path d="M 56.25429882871897 25.957352633546506 a86.0,86.0 0 0,1 42.265352541879196,-11.944610805530505" fill="none" id="id96" stroke="none" /><text fill="#e1ed5e" style="font-size:6.75px; font-family:Arial;" text-anchor="middle"><textPath startOffset="22.20632615414155" xlink:href="#id96">December</textPath></text><path d="M 90.26544431104013 81.39251694778311 l -16.507515990929697 -31.553913075229808 a56.61105887993164,56.61105887993164 0 0,0 0.8673340229101425,-0.444282173970791 l 15.96192148043079 31.833387774513103" fill="#caff1d" stroke="none" /><path d="M 92.23578459929587 80.48803036053334 l -13.306374506278445 -33.439769761453555 a56.98996810502005,56.98996810502005 0 0,0 0.9145989846439642,-0.3548501968941016 l 12.728792356634804 33.66386266223821" fill="#c4ff1e" stroke="none" /><path d="M 94.28887869178378 79.79150937346287 l -9.581283626711219 -33.90284847951552 a56.23072708532244,56.23072708532244 0 0,0 0.933703486911273,-0.2552164338264083 l 8.996282250576224 34.06275145416823" fill="#d1ff1d" stroke="none" /><path d="M 94.63758080256005 79.69619591428918 l -9.053418679973332 -34.27908792953922 a56.45448150905569,56.45448150905569 0 0,0 0.9416906222152033,-0.24005790721899944 l 8.462019169073129 34.429848832927085" fill="#cdff1d" stroke="none" /><path d="M 95.692805502759 79.44645832069477 l -7.0472517203704985 -33.6288463527645 a55.359322808054685,55.359322808054685 0 0,0 0.93434302630127,-0.18742042123320618 l 6.4673422846020925 33.74517073007492" fill="#dfff1b" stroke="none" /><path d="M 98.19473922651362 79.07773832637324 l -3.712035313945885 -43.021027942756106 a64.18087599184832,64.18087599184832 0 0,0 1.1014960648943604,-0.08549729420889421 l 2.9709490596891905 43.07855049915346" fill="#57ff2a" stroke="none" /><path d="M 99.63851952072746 79.00311137660856 l -0.4132135579705268 -24.001846716156887 a45.005403375706514,45.005403375706514 0 0,0 0.7746940372430566,-0.0066680361581871244 l 5.87962808126001e-15 24.005403375706514" fill="#ff6609" stroke="none" /></svg>