<?xml version="1.0" encoding="utf-8" ?>
<svg baseProfile="full" height="200mm" version="1.1" viewBox="0,0,200,200" width="200mm" xmlns="http://www.w3.org/2000/svg" xmlns:ev="http://www.w3.org/2001/xml-events" xmlns:xlink="http://www.w3.org/1999/xlink"><defs /><rect fill="#1a1a1a" height="200" width="200" x="0" y="0" /><circle cx="100.0" cy="100.0" fill="none" r="36.015698484732795" stroke="darkgrey" stroke-opacity="0.2" stroke-width="0.3" /><circle cx="100.0" cy="100.0" fill="none" r="51.0313969694656" stroke="darkgrey" stroke-opacity="0.2" stroke-width="0.3" /><circle cx="100.0" cy="100.0" fill="none" r="66.0470954541984" stroke="darkgrey" stroke-opacity="0.2" stroke-width="0.3" /><circle cx="100.0" cy="100.0" fill="none" r="81.0627939389312" stroke="darkgrey" stroke-opacity="0.2" stroke-width="0.3" /><text alignment-baseline="middle" fill="#e1ed5e" style="dominant-baseline: central; font-size:9.0px; font-family:Arial;" text-anchor="middle" x="100.0" y="100.0">2021</text><line stroke="#e1ed5e" stroke-width="0.3" x1="100.0" x2="100.0" y1="15.0" y2="10.0" /><path d="M 100.0 14.0 a86.0,86.0 0 0,1 42.46469731375804,11.215312516191453" fill="none" id="id121" stroke="none" /><text fill="#e1ed5e" style="font-size:6.75px; font-family:Arial;" text-anchor="middle"><textPath startOffset="22.20632615414155" xlink:href="#id121">January</textPath></text><path d="M 103.2404852339499 79.25152402106235 l 2.147965330724189 -13.753189368432306 a34.919912818187925,34.919912818187925 0 0,0 0.5930910964963979,0.09786511272251726 l -2.384385633359462 13.714177992770164" fill="#ff4f07" stroke="none" /><path d="M 103.95276090670814 79.375362276772 l 4.083935637020445 -21.309078638068662 a42.69689753606998,42.69689753606998 0 0,0 0.7206292713487397,0.1445514525043508 l -4.45013131783631 21.2356232294871" fill="#ffc612" stroke="none" /><path d="M 105.71112130821622 79.79150937346287 l 15.170284771346942 -53.67922358129978 a76.78168681865878,76.78168681865878 0 0,0 1.2687617345605138,0.37038634205575677 l -16.092036723630883 53.410138910325315" fill="#43ffdd" stroke="none" /><path d="M 107.76421540070413 80.48803036053334 l 12.251338943888605 -30.78839794865696 a54.13639621568564,54.13639621568564 0 0,0 0.862872621702103,0.35198740783354043 l -12.779495435179095 30.572949654639842" fill="#9bff22" stroke="none" /><path d="M 108.09893153111575 80.62456947434976 l 3.5032416814747536 -8.380959334351253 a30.08367665886845,30.08367665886845 0 0,0 0.4760616371012556,0.20382474836374165 l -3.6469870763663246 8.31941505802472" fill="#ff0000" stroke="none" /><path d="M 109.73455568895987 81.39251694778311 l 8.3618923623513 -15.983654045286874 a39.038803744122404,39.038803744122404 0 0,0 0.5927483786391686,0.3166256556927151 l -8.635785787518781 15.837349663092404" fill="#ff900d" stroke="none" /><line stroke="#e1ed5e" stroke-width="0.3" x1="143.23703022742887" x2="145.7803849466894" y1="26.81831364943548" y2="22.513508569990506" /><path d="M 143.74570117128098 25.957352633546492 a86.0,86.0 0 0,1 28.547481713284135,27.462654790039103" fill="none" id="id122" stroke="none" /><text fill="#e1ed5e" style="font-size:6.75px; font-family:Arial;" text-anchor="middle"><textPath startOffset="19.985693538727396" xlink:href="#id122">February</textPath></text><path d="M 111.90073688211348 82.69761687909136 l 12.579461493051049 -18.289175230368844 a43.19767514994062,43.19767514994062 0 0,0 0.6090231644894553,0.42665964683130314 l -12.892415797124155 18.069930740773607" fill="#ffce13" stroke="none" /><path d="M 112.48926042617603 83.11751280151076 l 11.695128451728689 -15.809011072999951 a40.66471104818652,40.66471104818652 0 0,0 0.5591472248318017,0.42113809740565966 l -11.965521830318872 15.605356386088445" fill="#ffa80f" stroke="none" /><path d="M 114.42810811169701 84.74124197986012 l 14.39790202588039 -15.226812920294272 a41.956035275225396,41.956035275225396 0 0,0 0.5204881057516515,0.500709145350903 l -14.65787337524446 14.976720688181066" fill="#ffbb11" stroke="none" /><path d="M 114.94478906791727 85.2469230424477 l 14.524039239057975 -14.337724517525979 a41.408774097386676,41.408774097386676 0 0,0 0.49638420174082193,0.5115675532971 l -14.768687704501906 14.085592768678765" fill="#ffb310" stroke="none" /><line stroke="#e1ed5e" stroke-width="0.3" x1="172.23445277983987" x2="176.4835382374775" y1="55.19839476539836" y2="52.563006222186495" /><path d="M 173.08426987136738 54.67131705675599 a86.0,86.0 0 0,1 12.851231095245387,41.99856678651699" fill="none" id="id123" stroke="none" /><text fill="#e1ed5e" style="font-size:6.75px; font-family:Arial;" text-anchor="middle"><textPath startOffset="22.20632615414155" xlink:href="#id123">March</textPath></text><path d="M 118.3937258080291 89.86733742301442 l 27.377155973509534 -15.08141888665032 a52.256325197189796,52.256325197189796 0 0,0 0.42723751433159746,0.7916062279232989 l -27.632701587059596 14.607931675394562" fill="#b4ff20" stroke="none" /><path d="M 118.73160827565052 90.50648371742162 l 14.062971855587639 -7.127367299582631 a36.76599321432715,36.76599321432715 0 0,0 0.2812423177954571,0.5669673510367867 l -14.183574186336505 6.884240360046895" fill="#ff6c0a" stroke="none" /><path d="M 118.89224826269711 90.83032412892265 l 43.31059640517001 -21.02153885001716 a69.14263034561267,69.14263034561267 0 0,0 0.510476109110266,1.0751928734248735 l -43.66603070812204 20.272903560951743" fill="#38ff7f" stroke="none" /><path d="M 119.85752413597 93.16781622104841 l 43.911005272841884 -15.108029374071462 a67.43736572674374,67.43736572674374 0 0,0 0.3682167073872057,1.1009210875806021 l -44.16455927400086 14.349935183568546" fill="#35ff68" stroke="none" /><path d="M 120.53481517161879 95.60439243477599 l 55.38153207860095 -11.85476856469824 a77.63611597819596,77.63611597819596 0 0,0 0.26847568594102617,1.3091827918476144 l -55.57738706045697 10.899710116687213" fill="#44ffe6" stroke="none" /><path d="M 120.78858239683441 97.02765380044208 l 13.530039045274588 -1.9345215257302 a34.66763805857356,34.66763805857356 0 0,0 0.07937898767004975,0.5914656590632321 l -13.561334032002474 1.7013375246023035" fill="#ff4b07" stroke="none" /><path d="M 120.87857604477298 97.74499172005257 l 32.18279785715311 -3.4759303260972816 a53.36996400285706,53.36996400285706 0 0,0 0.09078707221038299,0.9142134274881507 l -32.237862055045724 2.9214413679046958" fill="#a5ff21" stroke="none" /><line stroke="#e1ed5e" stroke-width="0.3" x1="184.98032266829074" x2="189.97916517819016" y1="98.17113171792111" y2="98.06355123074" /><path d="M 185.9800911702706 98.14961562048488 a86.0,86.0 0 0,1 -9.607161424134198,41.387399972396054" fill="none" id="id124" stroke="none" /><text fill="#e1ed5e" style="font-size:6.75px; font-family:Arial;" text-anchor="middle"><textPath startOffset="21.466115282336823" xlink:href="#id124">April</textPath></text><path d="M 120.99980553446 99.90962569577887 l 13.946242380894661 -0.06001874396428795 a34.9463715279742,34.9463715279742 0 0,0 -0.0025888649956240088,0.6015610513588233 l -13.945209218609534 -0.18005178559822008" fill="#ff5007" stroke="none" /><path d="M 120.9904718944345 100.63252640178507 l 44.84431660868511 1.3513376148786311 a65.86467257708873,65.86467257708873 0 0,0 -0.04390309221586134,1.1329437310865278 l -44.814411383618044 -2.1230585929791648" fill="#33ff53" stroke="none" /><path d="M 120.23288151984713 105.62410040840565 l 27.35422692209298 7.603608939895901 a49.39134726314025,49.39134726314025 0 0,0 -0.23474381576080947,0.817174018158824 l -27.21929046944607 -8.073340433559308" fill="#daff1c" stroke="none" /><path d="M 119.41010516605496 108.01547362559984 l 45.87124122192559 18.942696139064875 a70.62858559597511,70.62858559597511 0 0,0 -0.47371271337943416,1.1197169219556184 l -45.538377527353845 -19.729487586686655" fill="#3aff92" stroke="none" /><path d="M 119.12269723197855 108.67885076344098 l 11.215772307737796 5.090286839495135 a33.31684085175072,33.31684085175072 0 0,0 -0.24150804115924346,0.5201868350930444 l -11.126489649738721 -5.282593741867009" fill="#ff3505" stroke="none" /><line stroke="#e1ed5e" stroke-width="0.3" x1="174.80103733775053" x2="179.2010983576182" y1="140.37084112569926" y2="142.7455964860345" /><path d="M 175.68104954172406 140.8457921977663 a86.0,86.0 0 0,1 -30.038265399797805,32.042727171017184" fill="none" id="id125" stroke="none" /><text fill="#e1ed5e" style="font-size:6.75px; font-family:Arial;" text-anchor="middle"><textPath startOffset="22.206326154141568" xlink:href="#id125">May</textPath></text><path d="M 118.30583269289576 110.29060199501025 l 54.91749807868728 30.871805985030733 a84.0,84.0 0 0,0 -0.7193920153904818,1.2543206165667395 l -54.37795406714442 -31.812546447455787" fill="#4dd2ff" stroke="none" /><path d="M 116.93607887273984 112.41649034213515 l 16.446637477633555 12.057662044213119 a41.39311399206012,41.39311399206012 0 0,0 -0.426228311294702,0.5710024762144086 l -16.23664789964376 -12.338977399936843" fill="#ffb310" stroke="none" /><line stroke="#e1ed5e" stroke-width="0.3" x1="143.8653032363475" x2="146.44561519142675" y1="172.8068346515853" y2="177.08958963109032" /><path d="M 144.38136562736335 173.6633856474863 a86.0,86.0 0 0,1 -40.68145358897372,12.25698825130547" fill="none" id="id126" stroke="none" /><text fill="#e1ed5e" style="font-size:6.75px; font-family:Arial;" text-anchor="middle"><textPath startOffset="21.466115282336833" xlink:href="#id126">June</textPath></text><line stroke="#e1ed5e" stroke-width="0.3" x1="102.19456741930631" x2="102.32365962044197" y1="184.97166512339345" y2="189.96999836594603" /><path d="M 102.22038585953345 185.97133177190398 a86.0,86.0 0 0,1 -42.740103519485714,-10.115201625700543" fill="none" id="id127" stroke="none" /><text fill="#e1ed5e" style="font-size:6.75px; font-family:Arial;" text-anchor="middle"><textPath startOffset="22.20632615414155" xlink:href="#id127">July</textPath></text><line stroke="#e1ed5e" stroke-width="0.3" x1="58.666819895761336" x2="56.23545636021788" y1="174.27360380694188" y2="178.64263932499728" /><path d="M 58.180547188652646 175.14741091055294 a86.0,86.0 0 0,1 -31.652253787137756,-30.449443065178592" fill="none" id="id128" stroke="none" /><text fill="#e1ed5e" style="font-size:6.75px; font-family:Arial;" text-anchor="middle"><textPath startOffset="22.20632615414155" xlink:href="#id128">August</textPath></text><line stroke="#e1ed5e" stroke-width="0.3" x1="26.63291911575756" x2="22.317208475507996" y1="142.92168965132927" y2="145.44649492493687" /><path d="M 25.769776987707644 143.4266507060508 a86.0,86.0 0 0,1 -11.730757126820373,-40.83630448921669" fill="none" id="id129" stroke="none" /><text fill="#e1ed5e" style="font-size:6.75px; font-family:Arial;" text-anchor="middle"><textPath startOffset="21.46611528233685" xlink:href="#id129">September</textPath></text><line stroke="#e1ed5e" stroke-width="0.3" x1="15.007084014347285" x2="10.007500721073583" y1="101.09737516637583" y2="101.16192664675087" /><path d="M 14.007167355692545 101.11028546245083 a86.0,86.0 0 0,1 10.666146001902534,-42.60595125391555" fill="none" id="id130" stroke="none" /><text fill="#e1ed5e" style="font-size:6.75px; font-family:Arial;" text-anchor="middle"><textPath startOffset="22.20632615414155" xlink:href="#id130">October</textPath></text><line stroke="#e1ed5e" stroke-width="0.3" x1="26.266209847984243" x2="21.928928074336255" y1="57.711370442889674" y2="55.22380399835377" /><path d="M 25.398753493254645 57.213857153982495 a86.0,86.0 0 0,1 29.58750427330803,-30.492523968695096" fill="none" id="id131" stroke="none" /><text fill="#e1ed5e" style="font-size:6.75px; font-family:Arial;" text-anchor="middle"><textPath startOffset="21.46611528233685" xlink:href="#id131">November</textPath></text><line stroke="#e1ed5e" stroke-width="0.3" x1="56.762969772571076" x2="54.21961505331055" y1="26.818313649435495" y2="22.513508569990535" /><path d="M 56.25429882871897 25.957352633546506 a86.0,86.0 0 0,1 42.265352541879196,-11.944610805530505" fill="none" id="id132" stroke="none" /><text fill="#e1ed5e" style="font-size:6.75px; font-family:Arial;" text-anchor="middle"><textPath startOffset="22.20632615414155" xlink:href="#id132">December</textPath></text></svg>