<?xml version="1.0" encoding="utf-8" ?>
<svg baseProfile="full" height="200mm" version="1.1" viewBox="0,0,200,200" width="200mm" xmlns="http://www.w3.org/2000/svg" xmlns:ev="http://www.w3.org/2001/xml-events" xmlns:xlink="http://www.w3.org/1999/xlink"><defs /><rect fill="#1a1a1a" height="200" width="200" x="0" y="0" /><circle cx="100.0" cy="100.0" fill="none" r="52.79218780153079" stroke="darkgrey" stroke-opacity="0.2" stroke-width="0.3" /><text alignment-baseline="middle" fill="#e1ed5e" style="dominant-baseline: central; font-size:9.0px; font-family:Arial;" text-anchor="middle" x="100.0" y="100.0">2015</text><line stroke="#e1ed5e" stroke-width="0.3" x1="100.0" x2="100.0" y1="15.0" y2="10.0" /><path d="M 100.0 14.0 a86.0,86.0 0 0,1 42.46469731375804,11.215312516191453" fill="none" id="id49" stroke="none" /><text fill="#e1ed5e" style="font-size:6.75px; font-family:Arial;" text-anchor="middle"><textPath startOffset="22.20632615414155" xlink:href="#id49">January</textPath></text><line stroke="#e1ed5e" stroke-width="0.3" x1="143.23703022742887" x2="145.7803849466894" y1="26.81831364943548" y2="22.513508569990506" /><path d="M 143.74570117128098 25.957352633546492 a86.0,86.0 0 0,1 28.547481713284135,27.462654790039103" fill="none" id="id50" stroke="none" /><text fill="#e1ed5e" style="font-size:6.75px; font-family:Arial;" text-anchor="middle"><textPath startOffset="19.985693538727396" xlink:href="#id50">February</textPath></text><line stroke="#e1ed5e" stroke-width="0.3" x1="172.23445277983987" x2="176.4835382374775" y1="55.19839476539836" y2="52.563006222186495" /><path d="M 173.08426987136738 54.67131705675599 a86.0,86.0 0 0,1 12.851231095245387,41.99856678651699" fill="none" id="id51" stroke="none" /><text fill="#e1ed5e" style="font-size:6.75px; font-family:Arial;" text-anchor="middle"><textPath startOffset="22.20632615414155" xlink:href="#id51">March</textPath></text><line stroke="#e1ed5e" stroke-width="0.3" x1="184.98032266829074" x2="189.97916517819016" y1="98.17113171792111" y2="98.06355123074" /><path d="M 185.9800911702706 98.14961562048488 a86.0,86.0 0 0,1 -9.607161424134198,41.387399972396054" fill="none" id="id52" stroke="none" /><text fill="#e1ed5e" style="font-size:6.75px; font-family:Arial;" text-anchor="middle"><textPath startOffset="21.466115282336823" xlink:href="#id52">April</textPath></text><line stroke="#e1ed5e" stroke-width="0.3" x1="174.80103733775053" x2="179.2010983576182" y1="140.37084112569926" y2="142.7455964860345" /><path d="M 175.68104954172406 140.8457921977663 a86.0,86.0 0 0,1 -30.038265399797805,32.042727171017184" fill="none" id="id53" stroke="none" /><text fill="#e1ed5e" style="font-size:6.75px; font-family:Arial;" text-anchor="middle"><textPath startOffset="22.206326154141568" xlink:href="#id53">May</textPath></text><line stroke="#e1ed5e" stroke-width="0.3" x1="143.8653032363475" x2="146.44561519142675" y1="172.8068346515853" y2="177.08958963109032" /><path d="M 144.38136562736335 173.6633856474863 a86.0,86.0 0 0,1 -40.68145358897372,12.25698825130547" fill="none" id="id54" stroke="none" /><text fill="#e1ed5e" style="font-size:6.75px; font-family:Arial;" text-anchor="middle"><textPath startOffset="21.466115282336833" xlink:href="#id54">June</textPath></text><line stroke="#e1ed5e" stroke-width="0.3" x1="102.19456741930631" x2="102.32365962044197" y1="184.97166512339345" y2="189.96999836594603" /><path d="M 102.22038585953345 185.97133177190398 a86.0,86.0 0 0,1 -42.740103519485714,-10.115201625700543" fill="none" id="id55" stroke="none" /><text fill="#e1ed5e" style="font-size:6.75px; font-family:Arial;" text-anchor="middle"><textPath startOffset="22.20632615414155" xlink:href="#id55">July</textPath></text><path d="M 98.37488393609728 120.93702456842531 l -2.8031575674411866 36.114207570959515 a57.222833694042386,57.222833694042386 0 0,0 -0.9813870814209587,-0.08467820684647906 l 3.424388966603687 -36.06060511183437" fill="#6bff28" stroke="none" /><path d="M 95.51606077576429 120.51570834832081 l -7.596028414621628 34.75468684268297 a56.575102321830364,56.575102321830364 0 0,0 -0.9495992197372513,-0.21612569078256336 l 8.193147783751742 -34.618784418322726" fill="#72ff27" stroke="none" /><path d="M 93.08242187328487 119.8279376855182 l -13.851909231673673 39.70389463479786 a63.05085776216291,63.05085776216291 0 0,0 -1.0216654086657813,-0.36633286643339813 l 14.53329420096918 -39.45957422732451" fill="#30ff36" stroke="none" /><path d="M 90.7491055286396 118.85261126421891 l -21.304485109626587 43.41690170605376 a69.36226255604089,69.36226255604089 0 0,0 -1.0673401952031902,-0.5351865314938655 l 22.048679212512535 -43.043747333650586" fill="#39ff88" stroke="none" /><line stroke="#e1ed5e" stroke-width="0.3" x1="58.666819895761336" x2="56.23545636021788" y1="174.27360380694188" y2="178.64263932499728" /><path d="M 58.180547188652646 175.14741091055294 a86.0,86.0 0 0,1 -31.652253787137756,-30.449443065178592" fill="none" id="id56" stroke="none" /><text fill="#e1ed5e" style="font-size:6.75px; font-family:Arial;" text-anchor="middle"><textPath startOffset="22.20632615414155" xlink:href="#id56">August</textPath></text><path d="M 85.97065885151581 115.62618273729859 l -23.744832822067465 26.44750689410107 a56.54275884989031,56.54275884989031 0 0,0 -0.7186327529248913,-0.6564539811787693 l 24.196565124459212 -26.034860146335724" fill="#72ff27" stroke="none" /><path d="M 83.28015986056508 112.70617746262583 l -15.760029148819703 11.976772834613175 a40.79448423939292,40.79448423939292 0 0,0 -0.420064171321602,-0.5627446033910788 l 15.963854586836389 -11.70371535171279" fill="#ffbf11" stroke="none" /><path d="M 82.85270091963577 112.12312394758628 l -46.550722786477586 32.9113162105183 a78.00986341548459,78.00986341548459 0 0,0 -0.7657563084225636,-1.1031290750869451 l 47.11034000206228 -32.105145873244346" fill="#45ffed" stroke="none" /><line stroke="#e1ed5e" stroke-width="0.3" x1="26.63291911575756" x2="22.317208475507996" y1="142.92168965132927" y2="145.44649492493687" /><path d="M 25.769776987707644 143.4266507060508 a86.0,86.0 0 0,1 -11.730757126820373,-40.83630448921669" fill="none" id="id57" stroke="none" /><text fill="#e1ed5e" style="font-size:6.75px; font-family:Arial;" text-anchor="middle"><textPath startOffset="21.46611528233685" xlink:href="#id57">September</textPath></text><path d="M 81.51974371655577 109.97397251340807 l -30.852103611746493 16.651177812942468 a56.058722450029016,56.058722450029016 0 0,0 -0.45099907381188914,-0.853120284213503 l 31.13415519378327 -16.11764251364284" fill="#78ff26" stroke="none" /><path d="M 79.0095281055655 100.63252640178507 l -45.86952930429817 1.3822313508880952 a66.89035064264868,66.89035064264868 0 0,0 -0.024774712108399655,-1.1511835213153587 l 45.886526079091574 -0.5924580137826075" fill="#35ff69" stroke="none" /><line stroke="#e1ed5e" stroke-width="0.3" x1="15.007084014347285" x2="10.007500721073583" y1="101.09737516637583" y2="101.16192664675087" /><path d="M 14.007167355692545 101.11028546245083 a86.0,86.0 0 0,1 10.666146001902534,-42.60595125391555" fill="none" id="id58" stroke="none" /><text fill="#e1ed5e" style="font-size:6.75px; font-family:Arial;" text-anchor="middle"><textPath startOffset="22.20632615414155" xlink:href="#id58">October</textPath></text><path d="M 79.08570108090925 98.10471618934814 l -30.15636591354236 -2.732813197570719 a51.27993845905695,51.27993845905695 0 0,0 0.08723175221885426,-0.8784118403663683 l 30.104857035641277 3.251500568641518" fill="#b2ff20" stroke="none" /><path d="M 80.803312248108 91.48605970444005 l -6.628409189954406 -2.939771737040969 a28.25107345538417,28.25107345538417 0 0,0 0.200983091311074,-0.4428396003856407 l 6.576823781679981 3.053433346268681" fill="#ff0000" stroke="none" /><path d="M 81.6062741919709 89.86733742301443 l -47.74534907849895 -26.30176816170865 a75.5105619771067,75.5105619771067 0 0,0 0.6369580502837515,-1.1330772977656085 l 47.285533386922765 27.119728969409042" fill="#41ffd1" stroke="none" /><line stroke="#e1ed5e" stroke-width="0.3" x1="26.266209847984243" x2="21.928928074336255" y1="57.711370442889674" y2="55.22380399835377" /><path d="M 25.398753493254645 57.213857153982495 a86.0,86.0 0 0,1 29.58750427330803,-30.492523968695096" fill="none" id="id59" stroke="none" /><text fill="#e1ed5e" style="font-size:6.75px; font-family:Arial;" text-anchor="middle"><textPath startOffset="21.46611528233685" xlink:href="#id59">November</textPath></text><path d="M 83.17141714833178 87.43820079747576 l -40.34635920595019 -30.116788048366182 a71.34729013090748,71.34729013090748 0 0,0 0.7431128072114503,-0.9778493475861217 l 39.821970458514635 30.806822171833332" fill="#3cffa0" stroke="none" /><path d="M 83.84228863543731 86.58626213691792 l -48.47313409368807 -40.241213589246236 a84.0,84.0 0 0,0 0.9331575460515031,-1.1045642014835364 l 47.77326593414944 41.06963674035889" fill="#4dd2ff" stroke="none" /><path d="M 85.57189188830299 84.74124197986013 l -24.1724911472714 -25.564141209973553 a56.18287430083538,56.18287430083538 0 0,0 0.7084181990764663,-0.6583975098371492 l 23.72886506440008 25.97644330588535" fill="#77ff27" stroke="none" /><line stroke="#e1ed5e" stroke-width="0.3" x1="56.762969772571076" x2="54.21961505331055" y1="26.818313649435495" y2="22.513508569990535" /><path d="M 56.25429882871897 25.957352633546506 a86.0,86.0 0 0,1 42.265352541879196,-11.944610805530505" fill="none" id="id60" stroke="none" /><text fill="#e1ed5e" style="font-size:6.75px; font-family:Arial;" text-anchor="middle"><textPath startOffset="22.20632615414155" xlink:href="#id60">December</textPath></text><path d="M 89.94658935756843 81.56283822128135 l -20.60808515462078 -37.793601938600965 a64.04706170267053,64.04706170267053 0 0,0 0.9724629942477986,-0.5194560530009464 l 19.95447711384468 38.14273671810366" fill="#31ff44" stroke="none" /><path d="M 92.23578459929587 80.48803036053334 l -12.272288994590426 -30.84104676532968 a54.193060159436904,54.193060159436904 0 0,0 0.8697130292340742,-0.33743514354022136 l 11.739592800356675 31.04772461276045" fill="#8eff24" stroke="none" /><path d="M 93.25333710446033 80.11325718540243 l -10.009404911942669 -29.50413623638611 a52.155773810747405,52.155773810747405 0 0,0 0.8526653842128123,-0.28111037123887067 l 9.500056705487447 29.672060331884214" fill="#a7ff21" stroke="none" /><path d="M 95.692805502759 79.44645832069477 l -5.1225508088418765 -24.444348083498905 a45.97532141968193,45.97532141968193 0 0,0 0.7759618212704923,-0.15565064147705068 l 4.701022578104248 24.528902681053168" fill="#f7ff18" stroke="none" /><path d="M 99.63851952072746 79.00311137660856 l -0.7163438174321886 -41.60941520534626 a62.61558100274071,62.61558100274071 0 0,0 1.077824296704714,-0.00927717400301193 l 1.0192877613932762e-14 41.61558100274071" fill="#2fff31" stroke="none" /></svg>