<?xml version="1.0" encoding="utf-8" ?>
<svg baseProfile="full" height="200mm" version="1.1" viewBox="0,0,200,200" width="200mm" xmlns="http://www.w3.org/2000/svg" xmlns:ev="http://www.w3.org/2001/xml-events" xmlns:xlink="http://www.w3.org/1999/xlink"><defs /><rect fill="#1a1a1a" height="200" width="200" x="0" y="0" /><circle cx="100.0" cy="100.0" fill="none" r="37.70292865602502" stroke="darkgrey" stroke-opacity="0.2" stroke-width="0.3" /><circle cx="100.0" cy="100.0" fill="none" r="54.40585731205005" stroke="darkgrey" stroke-opacity="0.2" stroke-width="0.3" /><circle cx="100.0" cy="100.0" fill="none" r="71.10878596807508" stroke="darkgrey" stroke-opacity="0.2" stroke-width="0.3" /><text alignment-baseline="middle" fill="#e1ed5e" style="dominant-baseline: central; font-size:9.0px; font-family:Arial;" text-anchor="middle" x="100.0" y="100.0">2021</text><line stroke="#e1ed5e" stroke-width="0.3" x1="100.0" x2="100.0" y1="15.0" y2="10.0" /><path d="M 100.0 14.0 a86.0,86.0 0 0,1 42.46469731375804,11.215312516191453" fill="none" id="id121" stroke="none" /><text fill="#e1ed5e" style="font-size:6.75px; font-family:Arial;" text-anchor="middle"><textPath startOffset="22.20632615414155" xlink:href="#id121">January</textPath></text><path d="M 103.2404852339499 79.25152402106235 l 2.3893201978702203 -15.298558441839578 a36.484015674440904,36.484015674440904 0 0,0 0.6196563254211694,0.1022486031147694 l -2.6523057294302648 15.255163575785184" fill="#ff5a08" stroke="none" /><path d="M 103.95276090670814 79.375362276772 l 4.54282467447697 -23.703460786667584 a45.1348567281458,45.1348567281458 0 0,0 0.7617766346830281,0.15280522649491252 l -4.950167718627124 23.62175160409546" fill="#ffdf14" stroke="none" /><path d="M 105.71112130821622 79.79150937346287 l 16.87488494025258 -59.71085811964621 a83.04956340806342,83.04956340806342 0 0,0 1.372333853161739,0.4006218836099485 l -17.900209011137747 59.411537907117555" fill="#4cdcff" stroke="none" /><path d="M 107.76421540070413 80.48803036053334 l 13.62795347340073 -34.24791826318266 a57.859747981162535,57.859747981162535 0 0,0 0.9222186167069445,0.37619612928520807 l -14.215455959696062 34.008261247713875" fill="#74ff27" stroke="none" /><path d="M 108.09893153111575 80.62456947434976 l 3.8968813825064763 -9.322680924436995 a31.104358669811113,31.104358669811113 0 0,0 0.49221350426161226,0.21074013495025642 l -4.0567786445584035 9.254221261523947" fill="#ff0000" stroke="none" /><path d="M 109.73455568895987 81.39251694778311 l 9.301471503288498 -17.77964797657985 a41.065723368410815,41.065723368410815 0 0,0 0.6235242530436131,0.33306506196354313 l -9.606140802860422 17.61690418811455" fill="#ffa20f" stroke="none" /><line stroke="#e1ed5e" stroke-width="0.3" x1="143.23703022742887" x2="145.7803849466894" y1="26.81831364943548" y2="22.513508569990506" /><path d="M 143.74570117128098 25.957352633546492 a86.0,86.0 0 0,1 28.547481713284135,27.462654790039103" fill="none" id="id122" stroke="none" /><text fill="#e1ed5e" style="font-size:6.75px; font-family:Arial;" text-anchor="middle"><textPath startOffset="19.985693538727396" xlink:href="#id122">February</textPath></text><path d="M 111.90073688211348 82.69761687909136 l 13.992945320744077 -20.344227700162623 a45.69190392548533,45.69190392548533 0 0,0 0.6441880916891308,0.45129492557712797 l -14.341064552016858 20.10034793182156" fill="#ffe715" stroke="none" /><path d="M 112.48926042617603 83.11751280151076 l 13.009244714848764 -17.585381348933417 a42.874324795024776,42.874324795024776 0 0,0 0.5895298185512254,0.4440216370979048 l -13.310020687158373 17.358843122329663" fill="#ffbd11" stroke="none" /><path d="M 114.42810811169701 84.74124197986012 l 16.01571385968049 -16.937764841569482 a44.31074791300075,44.31074791300075 0 0,0 0.5496996342572745,0.5288106126290486 l -16.30489673755018 16.659571142178134" fill="#ffd313" stroke="none" /><path d="M 114.94478906791727 85.2469230424477 l 16.156024406986507 -15.948774540822756 a43.701994053235495,43.701994053235495 0 0,0 0.5238739833635041,0.5398981896792986 l -16.428162654053118 15.668312155593343" fill="#ffca12" stroke="none" /><line stroke="#e1ed5e" stroke-width="0.3" x1="172.23445277983987" x2="176.4835382374775" y1="55.19839476539836" y2="52.563006222186495" /><path d="M 173.08426987136738 54.67131705675599 a86.0,86.0 0 0,1 12.851231095245387,41.99856678651699" fill="none" id="id123" stroke="none" /><text fill="#e1ed5e" style="font-size:6.75px; font-family:Arial;" text-anchor="middle"><textPath startOffset="22.20632615414155" xlink:href="#id123">March</textPath></text><path d="M 118.3937258080291 89.86733742301442 l 30.453374080155978 -16.77603369243674 a55.768423883111076,55.768423883111076 0 0,0 0.4559517476229383,0.8448093412759009 l -30.737633926997383 16.24934336782838" fill="#8eff24" stroke="none" /><path d="M 118.73160827565052 90.50648371742162 l 15.643149456843148 -7.928229754430431 a38.53752981374994,38.53752981374994 0 0,0 0.2947937280994495,0.59428616729137 l -15.777303197896005 7.657783998640111" fill="#ff7a0b" stroke="none" /><path d="M 118.89224826269711 90.83032412892265 l 48.177166219805166 -23.383611758633624 a74.55214882569368,74.55214882569368 0 0,0 0.5504142765197021,1.1593128394916883 l -48.572538690166624 22.550856503501393" fill="#3fffc0" stroke="none" /><path d="M 119.85752413597 93.16781622104841 l 48.84503967846343 -16.805634251701385 a72.65527314604604,72.65527314604604 0 0,0 0.39670715431794673,1.1861038975709852 l -49.12708412655314 15.962357251208084" fill="#3cffa8" stroke="none" /><path d="M 120.53481517161879 95.60439243477599 l 61.60444551485638 -13.186822695672053 a84.0,84.0 0 0,0 0.2904828163400124,1.4164973753463528 l -61.822307627111385 12.124449664162288" fill="#4dd2ff" stroke="none" /><path d="M 120.78858239683441 97.02765380044208 l 15.050333963233948 -2.151892904660387 a36.2033942091232,36.2033942091232 0 0,0 0.08289543053623846,0.61766724286339 l -15.085145392828021 1.8925073197323325" fill="#ff5507" stroke="none" /><path d="M 120.87857604477298 97.74499172005257 l 35.7989991012309 -3.866501202667818 a57.007196061345326,57.007196061345326 0 0,0 0.09697432857657083,0.9765182547236034 l -35.8602505554897 3.24970741723978" fill="#7eff26" stroke="none" /><line stroke="#e1ed5e" stroke-width="0.3" x1="184.98032266829074" x2="189.97916517819016" y1="98.17113171792111" y2="98.06355123074" /><path d="M 185.9800911702706 98.14961562048488 a86.0,86.0 0 0,1 -9.607161424134198,41.387399972396054" fill="none" id="id124" stroke="none" /><text fill="#e1ed5e" style="font-size:6.75px; font-family:Arial;" text-anchor="middle"><textPath startOffset="21.466115282336823" xlink:href="#id124">April</textPath></text><path d="M 120.99980553446 99.90962569577887 l 15.513303743050047 -0.06676271499983931 a36.51344740166559,36.51344740166559 0 0,0 -0.002704955671064777,0.6285364358957336 l -15.512154490089479 -0.200283199099579" fill="#ff5a08" stroke="none" /><path d="M 120.9904718944345 100.63252640178507 l 49.883221996275616 1.5031798750134833 a70.90586525115421,70.90586525115421 0 0,0 -0.04726337532648307,1.2196577070893257 l -49.84995648809793 -2.361614829116815" fill="#3aff92" stroke="none" /><path d="M 120.23288151984713 105.62410040840565 l 30.42786861929777 8.457984007905132 a52.581524380422564,52.581524380422564 0 0,0 -0.24990587128186914,0.869955122502447 l -30.2777701111298 -8.980496605912162" fill="#b7ff1f" stroke="none" /><line stroke="#e1ed5e" stroke-width="0.3" x1="174.80103733775053" x2="179.2010983576182" y1="140.37084112569926" y2="142.7455964860345" /><path d="M 175.68104954172406 140.8457921977663 a86.0,86.0 0 0,1 -30.038265399797805,32.042727171017184" fill="none" id="id125" stroke="none" /><text fill="#e1ed5e" style="font-size:6.75px; font-family:Arial;" text-anchor="middle"><textPath startOffset="22.206326154141568" xlink:href="#id125">May</textPath></text><line stroke="#e1ed5e" stroke-width="0.3" x1="143.8653032363475" x2="146.44561519142675" y1="172.8068346515853" y2="177.08958963109032" /><path d="M 144.38136562736335 173.6633856474863 a86.0,86.0 0 0,1 -40.68145358897372,12.25698825130547" fill="none" id="id126" stroke="none" /><text fill="#e1ed5e" style="font-size:6.75px; font-family:Arial;" text-anchor="middle"><textPath startOffset="21.466115282336833" xlink:href="#id126">June</textPath></text><line stroke="#e1ed5e" stroke-width="0.3" x1="102.19456741930631" x2="102.32365962044197" y1="184.97166512339345" y2="189.96999836594603" /><path d="M 102.22038585953345 185.97133177190398 a86.0,86.0 0 0,1 -42.740103519485714,-10.115201625700543" fill="none" id="id127" stroke="none" /><text fill="#e1ed5e" style="font-size:6.75px; font-family:Arial;" text-anchor="middle"><textPath startOffset="22.20632615414155" xlink:href="#id127">July</textPath></text><line stroke="#e1ed5e" stroke-width="0.3" x1="58.666819895761336" x2="56.23545636021788" y1="174.27360380694188" y2="178.64263932499728" /><path d="M 58.180547188652646 175.14741091055294 a86.0,86.0 0 0,1 -31.652253787137756,-30.449443065178592" fill="none" id="id128" stroke="none" /><text fill="#e1ed5e" style="font-size:6.75px; font-family:Arial;" text-anchor="middle"><textPath startOffset="22.20632615414155" xlink:href="#id128">August</textPath></text><line stroke="#e1ed5e" stroke-width="0.3" x1="26.63291911575756" x2="22.317208475507996" y1="142.92168965132927" y2="145.44649492493687" /><path d="M 25.769776987707644 143.4266507060508 a86.0,86.0 0 0,1 -11.730757126820373,-40.83630448921669" fill="none" id="id129" stroke="none" /><text fill="#e1ed5e" style="font-size:6.75px; font-family:Arial;" text-anchor="middle"><textPath startOffset="21.46611528233685" xlink:href="#id129">September</textPath></text><line stroke="#e1ed5e" stroke-width="0.3" x1="15.007084014347285" x2="10.007500721073583" y1="101.09737516637583" y2="101.16192664675087" /><path d="M 14.007167355692545 101.11028546245083 a86.0,86.0 0 0,1 10.666146001902534,-42.60595125391555" fill="none" id="id130" stroke="none" /><text fill="#e1ed5e" style="font-size:6.75px; font-family:Arial;" text-anchor="middle"><textPath startOffset="22.20632615414155" xlink:href="#id130">October</textPath></text><line stroke="#e1ed5e" stroke-width="0.3" x1="26.266209847984243" x2="21.928928074336255" y1="57.711370442889674" y2="55.22380399835377" /><path d="M 25.398753493254645 57.213857153982495 a86.0,86.0 0 0,1 29.58750427330803,-30.492523968695096" fill="none" id="id131" stroke="none" /><text fill="#e1ed5e" style="font-size:6.75px; font-family:Arial;" text-anchor="middle"><textPath startOffset="21.46611528233685" xlink:href="#id131">November</textPath></text><line stroke="#e1ed5e" stroke-width="0.3" x1="56.762969772571076" x2="54.21961505331055" y1="26.818313649435495" y2="22.513508569990535" /><path d="M 56.25429882871897 25.957352633546506 a86.0,86.0 0 0,1 42.265352541879196,-11.944610805530505" fill="none" id="id132" stroke="none" /><text fill="#e1ed5e" style="font-size:6.75px; font-family:Arial;" text-anchor="middle"><textPath startOffset="22.20632615414155" xlink:href="#id132">December</textPath></text></svg>