<?xml version="1.0" encoding="utf-8" ?>
<svg baseProfile="full" height="200mm" version="1.1" viewBox="0,0,200,200" width="200mm" xmlns="http://www.w3.org/2000/svg" xmlns:ev="http://www.w3.org/2001/xml-events" xmlns:xlink="http://www.w3.org/1999/xlink"><defs /><rect fill="#1a1a1a" height="200" width="200" x="0" y="0" /><circle cx="100.0" cy="100.0" fill="none" r="48.950191831592505" stroke="darkgrey" stroke-opacity="0.2" stroke-width="0.3" /><circle cx="100.0" cy="100.0" fill="none" r="76.90038366318501" stroke="darkgrey" stroke-opacity="0.2" stroke-width="0.3" /><text alignment-baseline="middle" fill="#e1ed5e" style="dominant-baseline: central; font-size:9.0px; font-family:Arial;" text-anchor="middle" x="100.0" y="100.0">2017</text><line stroke="#e1ed5e" stroke-width="0.3" x1="100.0" x2="100.0" y1="15.0" y2="10.0" /><path d="M 100.0 14.0 a86.0,86.0 0 0,1 42.46469731375804,11.215312516191453" fill="none" id="id73" stroke="none" /><text fill="#e1ed5e" style="font-size:6.75px; font-family:Arial;" text-anchor="middle"><textPath startOffset="22.20632615414155" xlink:href="#id73">January</textPath></text><path d="M 102.16513564639614 79.11191278185805 l 6.38594785586898 -61.608258127349124 a82.93833868860189,82.93833868860189 0 0,0 1.4187720386920641,0.15941556961418069 l -7.44548659807077 61.489206604264346" fill="#4bdfff" stroke="none" /><path d="M 106.40334571778207 80.00007090966166 l 10.976216471933082 -34.282632985011126 a56.996892260634226,56.996892260634226 0 0,0 0.9318101043749495,0.3072031411323215 l -11.564709398550448 34.08861611961957" fill="#b0ff20" stroke="none" /><path d="M 107.4271985657038 80.35727306442388 l 15.137132980793513 -40.03320593880673 a63.79942023692771,63.79942023692771 0 0,0 1.0238799372907414,0.3972495087395903 l -15.823996083083923 39.76671372617659" fill="#4fff2b" stroke="none" /><line stroke="#e1ed5e" stroke-width="0.3" x1="143.23703022742887" x2="145.7803849466894" y1="26.81831364943548" y2="22.513508569990506" /><path d="M 143.74570117128098 25.957352633546492 a86.0,86.0 0 0,1 28.547481713284135,27.462654790039103" fill="none" id="id74" stroke="none" /><text fill="#e1ed5e" style="font-size:6.75px; font-family:Arial;" text-anchor="middle"><textPath startOffset="19.985693538727396" xlink:href="#id74">February</textPath></text><path d="M 110.99172775467656 82.1063720568725 l 14.40335537226124 -23.44747685860722 a48.51800895803633,48.51800895803633 0 0,0 0.7078566052272999,0.4432597412544454 l -14.804831129860803 23.196072776029833" fill="#ffc612" stroke="none" /><line stroke="#e1ed5e" stroke-width="0.3" x1="172.23445277983987" x2="176.4835382374775" y1="55.19839476539836" y2="52.563006222186495" /><path d="M 173.08426987136738 54.67131705675599 a86.0,86.0 0 0,1 12.851231095245387,41.99856678651699" fill="none" id="id75" stroke="none" /><text fill="#e1ed5e" style="font-size:6.75px; font-family:Arial;" text-anchor="middle"><textPath startOffset="22.20632615414155" xlink:href="#id75">March</textPath></text><path d="M 118.3937258080291 89.86733742301442 l 30.404538759522534 -16.749131485076358 a55.71266890752833,55.71266890752833 0 0,0 0.45549590582599403,0.843964735656534 l -30.688342764566993 16.223285766087365" fill="#c4ff1e" stroke="none" /><path d="M 119.47837535516314 92.15188598940014 l 49.98151328626279 -20.13826140735732 a74.88600229090966,74.88600229090966 0 0,0 0.47144821554438165,1.1997842852453868 l -50.32075505168888 19.27492811721615" fill="#3effb4" stroke="none" /><path d="M 120.28053869075195 94.5502522615342 l 47.21028557899661 -12.686258042237524 a69.88509187436034,69.88509187436034 0 0,0 0.3021820328463249,1.1644306403659843 l -47.421663943713234 11.87173097632269" fill="#36ff6a" stroke="none" /><line stroke="#e1ed5e" stroke-width="0.3" x1="184.98032266829074" x2="189.97916517819016" y1="98.17113171792111" y2="98.06355123074" /><path d="M 185.9800911702706 98.14961562048488 a86.0,86.0 0 0,1 -9.607161424134198,41.387399972396054" fill="none" id="id76" stroke="none" /><text fill="#e1ed5e" style="font-size:6.75px; font-family:Arial;" text-anchor="middle"><textPath startOffset="21.466115282336823" xlink:href="#id76">April</textPath></text><path d="M 120.89721153311464 102.0752229133903 l 62.69163459934395 6.2256687401709 a84.0,84.0 0 0,0 -0.15527079399579247,1.4376147124608343 l -62.575181503847105 -7.303879774516526" fill="#4dd2ff" stroke="none" /><line stroke="#e1ed5e" stroke-width="0.3" x1="174.80103733775053" x2="179.2010983576182" y1="140.37084112569926" y2="142.7455964860345" /><path d="M 175.68104954172406 140.8457921977663 a86.0,86.0 0 0,1 -30.038265399797805,32.042727171017184" fill="none" id="id77" stroke="none" /><text fill="#e1ed5e" style="font-size:6.75px; font-family:Arial;" text-anchor="middle"><textPath startOffset="22.206326154141568" xlink:href="#id77">May</textPath></text><line stroke="#e1ed5e" stroke-width="0.3" x1="143.8653032363475" x2="146.44561519142675" y1="172.8068346515853" y2="177.08958963109032" /><path d="M 144.38136562736335 173.6633856474863 a86.0,86.0 0 0,1 -40.68145358897372,12.25698825130547" fill="none" id="id78" stroke="none" /><text fill="#e1ed5e" style="font-size:6.75px; font-family:Arial;" text-anchor="middle"><textPath startOffset="21.466115282336833" xlink:href="#id78">June</textPath></text><path d="M 103.41894727170886 120.7198165907248 l 6.403693047981095 38.80824561273502 a60.3330295323298,60.3330295323298 0 0,0 -1.0261330661331622,0.16026088143763867 l -5.734724118239416 -38.912724801519765" fill="#7fff26" stroke="none" /><line stroke="#e1ed5e" stroke-width="0.3" x1="102.19456741930631" x2="102.32365962044197" y1="184.97166512339345" y2="189.96999836594603" /><path d="M 102.22038585953345 185.97133177190398 a86.0,86.0 0 0,1 -42.740103519485714,-10.115201625700543" fill="none" id="id79" stroke="none" /><text fill="#e1ed5e" style="font-size:6.75px; font-family:Arial;" text-anchor="middle"><textPath startOffset="22.20632615414155" xlink:href="#id79">July</textPath></text><path d="M 100.18074693466247 120.99922214144158 l 0.29277107785245393 34.01421391678942 a55.01547388000259,55.01547388000259 0 0,0 -0.9470360250297954,0.0 l 0.2927710778524305 -34.01421391678942" fill="#ceff1d" stroke="none" /><path d="M 97.65516085044442 120.86867818915974 l -4.060206753708502 36.135164384582524 a57.36255469550594,57.36255469550594 0 0,0 -0.9802784678062783,-0.1186980707264992 l 4.681612644566169 -36.05992078513067" fill="#aaff21" stroke="none" /><line stroke="#e1ed5e" stroke-width="0.3" x1="58.666819895761336" x2="56.23545636021788" y1="174.27360380694188" y2="178.64263932499728" /><path d="M 58.180547188652646 175.14741091055294 a86.0,86.0 0 0,1 -31.652253787137756,-30.449443065178592" fill="none" id="id80" stroke="none" /><text fill="#e1ed5e" style="font-size:6.75px; font-family:Arial;" text-anchor="middle"><textPath startOffset="22.20632615414155" xlink:href="#id80">August</textPath></text><path d="M 84.67929136418377 114.36230785411682 l -31.224821812987987 29.271524850990243 a63.79966897482958,63.79966897482958 0 0,0 -0.7441884801937121,-0.8076696162403838 l 31.724056701177428 -28.729703979948514" fill="#4fff2b" stroke="none" /><line stroke="#e1ed5e" stroke-width="0.3" x1="26.63291911575756" x2="22.317208475507996" y1="142.92168965132927" y2="145.44649492493687" /><path d="M 25.769776987707644 143.4266507060508 a86.0,86.0 0 0,1 -11.730757126820373,-40.83630448921669" fill="none" id="id81" stroke="none" /><text fill="#e1ed5e" style="font-size:6.75px; font-family:Arial;" text-anchor="middle"><textPath startOffset="21.46611528233685" xlink:href="#id81">September</textPath></text><path d="M 80.45479744820244 107.68017299344265 l -15.56857929753627 6.117582150931032 a37.72738690641981,37.72738690641981 0 0,0 -0.23230318776138217,-0.6064703192654582 l 15.67157676489116 -5.848688264832416" fill="#ff0000" stroke="none" /><line stroke="#e1ed5e" stroke-width="0.3" x1="15.007084014347285" x2="10.007500721073583" y1="101.09737516637583" y2="101.16192664675087" /><path d="M 14.007167355692545 101.11028546245083 a86.0,86.0 0 0,1 10.666146001902534,-42.60595125391555" fill="none" id="id82" stroke="none" /><text fill="#e1ed5e" style="font-size:6.75px; font-family:Arial;" text-anchor="middle"><textPath startOffset="22.20632615414155" xlink:href="#id82">October</textPath></text><path d="M 80.2630227832202 92.82701384747504 l -48.85948561345886 -17.756944737559643 a72.98613681381354,72.98613681381354 0 0,0 0.4392910855361176,-1.1770817074499842 l 48.54658993942111 18.59534958203897" fill="#3bff99" stroke="none" /><line stroke="#e1ed5e" stroke-width="0.3" x1="26.266209847984243" x2="21.928928074336255" y1="57.711370442889674" y2="55.22380399835377" /><path d="M 25.398753493254645 57.213857153982495 a86.0,86.0 0 0,1 29.58750427330803,-30.492523968695096" fill="none" id="id83" stroke="none" /><text fill="#e1ed5e" style="font-size:6.75px; font-family:Arial;" text-anchor="middle"><textPath startOffset="21.46611528233685" xlink:href="#id83">November</textPath></text><path d="M 83.84228863543731 86.58626213691792 l -42.33582571580184 -35.14616987244745 a76.02340770746284,76.02340770746284 0 0,0 0.8445454354615352,-0.9996754122434645 l 41.72456966685318 35.86970423432003" fill="#40ffc4" stroke="none" /><line stroke="#e1ed5e" stroke-width="0.3" x1="56.762969772571076" x2="54.21961505331055" y1="26.818313649435495" y2="22.513508569990535" /><path d="M 56.25429882871897 25.957352633546506 a86.0,86.0 0 0,1 42.265352541879196,-11.944610805530505" fill="none" id="id84" stroke="none" /><text fill="#e1ed5e" style="font-size:6.75px; font-family:Arial;" text-anchor="middle"><textPath startOffset="22.20632615414155" xlink:href="#id84">December</textPath></text><path d="M 90.58718382345135 81.22770947309562 l -8.533693155128038 -17.019026417900122 a40.03867587515112,40.03867587515112 0 0,0 0.618747654873477,-0.30361678705485234 l 8.239474233244135 17.1633983650898" fill="#ff2d04" stroke="none" /><path d="M 95.33964822691252 79.52364482259891 l -5.523420959807216 -24.268453300121962 a45.88907400204833,45.88907400204833 0 0,0 0.7717171602705177,-0.1686674808494261 l 5.104861075383177 24.359934279067257" fill="#ff980e" stroke="none" /></svg>