<?xml version="1.0" encoding="utf-8" ?>
<svg baseProfile="full" height="200mm" version="1.1" viewBox="0,0,200,200" width="200mm" xmlns="http://www.w3.org/2000/svg" xmlns:ev="http://www.w3.org/2001/xml-events" xmlns:xlink="http://www.w3.org/1999/xlink"><defs /><rect fill="#1a1a1a" height="200" width="200" x="0" y="0" /><circle cx="100.0" cy="100.0" fill="none" r="45.383841622043185" stroke="darkgrey" stroke-opacity="0.2" stroke-width="0.3" /><circle cx="100.0" cy="100.0" fill="none" r="69.76768324408637" stroke="darkgrey" stroke-opacity="0.2" stroke-width="0.3" /><text alignment-baseline="middle" fill="#e1ed5e" style="dominant-baseline: central; font-size:9.0px; font-family:Arial;" text-anchor="middle" x="100.0" y="100.0">2019</text><line stroke="#e1ed5e" stroke-width="0.3" x1="100.0" x2="100.0" y1="15.0" y2="10.0" /><path d="M 100.0 14.0 a86.0,86.0 0 0,1 42.46469731375804,11.215312516191453" fill="none" id="id97" stroke="none" /><text fill="#e1ed5e" style="font-size:6.75px; font-family:Arial;" text-anchor="middle"><textPath startOffset="22.20632615414155" xlink:href="#id97">January</textPath></text><path d="M 103.2404852339499 79.25152402106235 l 4.402045493456392 -28.18582051300983 a49.52750396578827,49.52750396578827 0 0,0 0.8411911503541767,0.13880374741234283 l -4.886565849949444 28.10587050265786" fill="#caff1d" stroke="none" /><path d="M 104.66035177308747 79.52364482259891 l 6.180366713246951 -27.154899481588163 a48.84933569343025,48.84933569343025 0 0,0 0.8182875811697568,0.19366223265147825 l -6.646877981379231 27.04449133679582" fill="#d3ff1c" stroke="none" /><path d="M 105.36241919743992 79.69619591428918 l 3.31777206862651 -12.562127577529964 a33.992869612733635,33.992869612733635 0 0,0 0.5644469231096856,0.15428466619192435 l -3.5335168809599065 12.503156370511746" fill="#ff5908" stroke="none" /><path d="M 108.09893153111575 80.62456947434976 l 11.875101518909208 -28.40932826517813 a51.79136191471642,51.79136191471642 0 0,0 0.8195767033533496,0.3508999724131328 l -12.362361980052874 28.200708764802204" fill="#adff20" stroke="none" /><path d="M 108.76106565485865 80.91482961587045 l 3.6103758649651794 -7.864869554469886 a29.653957880366093,29.653957880366093 0 0,0 0.46206767331713217,0.21694696827346033 l -3.7452217495819093 7.8015576035564225" fill="#ff1402" stroke="none" /><line stroke="#e1ed5e" stroke-width="0.3" x1="143.23703022742887" x2="145.7803849466894" y1="26.81831364943548" y2="22.513508569990506" /><path d="M 143.74570117128098 25.957352633546492 a86.0,86.0 0 0,1 28.547481713284135,27.462654790039103" fill="none" id="id98" stroke="none" /><text fill="#e1ed5e" style="font-size:6.75px; font-family:Arial;" text-anchor="middle"><textPath startOffset="19.985693538727396" xlink:href="#id98">February</textPath></text><path d="M 110.68208982089419 81.91981866633111 l 15.535710701085499 -26.29527286632878 a51.541769465807135,51.541769465807135 0 0,0 0.759966047660923,0.4578710403975606 l -15.98603881496406 26.023955216472604" fill="#b0ff20" stroke="none" /><path d="M 113.06298171725822 83.55741782278167 l 31.2921661163796 -39.38794557080123 a71.30516789101787,71.30516789101787 0 0,0 0.9544590647120712,0.7717728521517107 l -31.965528579656162 38.84346662138539" fill="#3bff9f" stroke="none" /><path d="M 113.89432698308785 84.25364557470407 l 21.058876249737942 -23.865893585953774 a52.82855864719366,52.82855864719366 0 0,0 0.6766810389159973,0.607530918027932 l -21.46656827624993 23.499863659156542" fill="#a0ff22" stroke="none" /><path d="M 114.42810811169701 84.74124197986012 l 16.450725825600077 -17.397821161666716 a44.9439044719612,44.9439044719612 0 0,0 0.5575542958299363,0.5363667908387091 l -16.74776336504243 17.112071284065703" fill="#fff817" stroke="none" /><path d="M 114.94478906791727 85.2469230424477 l 6.606561750601526 -6.521812619000647 a30.28335596656011,30.28335596656011 0 0,0 0.363019186275374,0.3741231817441318 l -6.717845200580009 6.4071252417064" fill="#ff1e03" stroke="none" /><path d="M 115.4437574822437 85.77008943001954 l 15.555563333637018 -14.332928716202765 a42.152030545802035,42.152030545802035 0 0,0 0.48706944156599913,0.5378342426512612 l -15.799976415819051 14.063041686281956" fill="#ffd113" stroke="none" /><path d="M 116.82858285166822 87.43820079747576 l 34.47834365638361 -25.736571740155913 a64.02472900813996,64.02472900813996 0 0,0 0.651641824415375,0.8888387161727598 l -34.91624809331261 25.13927058031166" fill="#31ff43" stroke="none" /><line stroke="#e1ed5e" stroke-width="0.3" x1="172.23445277983987" x2="176.4835382374775" y1="55.19839476539836" y2="52.563006222186495" /><path d="M 173.08426987136738 54.67131705675599 a86.0,86.0 0 0,1 12.851231095245387,41.99856678651699" fill="none" id="id99" stroke="none" /><text fill="#e1ed5e" style="font-size:6.75px; font-family:Arial;" text-anchor="middle"><textPath startOffset="22.20632615414155" xlink:href="#id99">March</textPath></text><path d="M 119.34039704204932 91.81776055985345 l 46.320356719941195 -19.596508221188014 a71.29511488331337,71.29511488331337 0 0,0 0.4684371278502067,1.1343576611889612 l -46.6508155346776 18.796275989545748" fill="#3bff9f" stroke="none" /><path d="M 120.28053869075195 94.5502522615342 l 26.64300620137831 -7.159457892413019 a48.588178931562666,48.588178931562666 0 0,0 0.21009451784418892,0.8095798802012293 l -26.7622970510928 6.699781586662939" fill="#d6ff1c" stroke="none" /><path d="M 120.6074358757038 95.95851677861258 l 29.292101186822812 -5.744699931605834 a50.850105012265175,50.850105012265175 0 0,0 0.1610599011427835,0.8603884321042207 l -29.386646811875455 5.23963342203905" fill="#b9ff1f" stroke="none" /><line stroke="#e1ed5e" stroke-width="0.3" x1="184.98032266829074" x2="189.97916517819016" y1="98.17113171792111" y2="98.06355123074" /><path d="M 185.9800911702706 98.14961562048488 a86.0,86.0 0 0,1 -9.607161424134198,41.387399972396054" fill="none" id="id100" stroke="none" /><text fill="#e1ed5e" style="font-size:6.75px; font-family:Arial;" text-anchor="middle"><textPath startOffset="21.466115282336823" xlink:href="#id100">April</textPath></text><line stroke="#e1ed5e" stroke-width="0.3" x1="174.80103733775053" x2="179.2010983576182" y1="140.37084112569926" y2="142.7455964860345" /><path d="M 175.68104954172406 140.8457921977663 a86.0,86.0 0 0,1 -30.038265399797805,32.042727171017184" fill="none" id="id101" stroke="none" /><text fill="#e1ed5e" style="font-size:6.75px; font-family:Arial;" text-anchor="middle"><textPath startOffset="22.206326154141568" xlink:href="#id101">May</textPath></text><path d="M 114.55890576462653 115.13401014063108 l 21.072034633873926 21.904419946697683 a51.394641909594355,51.394641909594355 0 0,0 -0.6428347968555633,0.60784042415189 l -20.691864002627554 -22.263895007595494" fill="#b2ff20" stroke="none" /><path d="M 111.45004920935366 117.60387380957326 l 15.915058675325156 24.468600917759115 a50.18906513596495,50.18906513596495 0 0,0 -0.7282629278657367,0.46481185713177164 l -15.491513945412489 -24.738927203714695" fill="#c1ff1e" stroke="none" /><line stroke="#e1ed5e" stroke-width="0.3" x1="143.8653032363475" x2="146.44561519142675" y1="172.8068346515853" y2="177.08958963109032" /><path d="M 144.38136562736335 173.6633856474863 a86.0,86.0 0 0,1 -40.68145358897372,12.25698825130547" fill="none" id="id102" stroke="none" /><text fill="#e1ed5e" style="font-size:6.75px; font-family:Arial;" text-anchor="middle"><textPath startOffset="21.466115282336833" xlink:href="#id102">June</textPath></text><path d="M 110.5260780823613 118.17145234162733 l 19.45459146123265 33.584985670590335 a59.8127864423211,59.8127864423211 0 0,0 -0.8953439605725059,0.5083996678550612 l -18.87359873373894 -33.914888504240025" fill="#4eff2c" stroke="none" /><path d="M 108.2653958097858 119.30500536409082 l 19.816676830285477 46.284662139734785 a71.3484918342682,71.3484918342682 0 0,0 -1.1331789689781326,0.473668900936395 l -19.017026401809883 -46.618916083691154" fill="#3bffa0" stroke="none" /><path d="M 105.88484417918355 120.15858648285463 l 2.0742675713587415 7.105422157773639 a28.402000405145294,28.402000405145294 0 0,0 -0.47048431925859086,0.13296356816331928 l -1.9516520839955451 -7.140074519275478" fill="#ff0000" stroke="none" /><path d="M 105.53697534728816 120.25689768951611 l 5.290971548529782 19.356898417328388 a41.06698523112333,41.06698523112333 0 0,0 -0.6834906582474615,0.18051609499307808 l -4.956990447470824 -19.445105861625052" fill="#ffc112" stroke="none" /><path d="M 104.48393922423573 120.51570834832081 l 5.822597656967321 26.64057414389204 a48.26944873280592,48.26944873280592 0 0,0 -0.8132449101792202,0.17042337796020926 l -5.363161285358722 -26.73685350257879" fill="#daff1c" stroke="none" /><path d="M 103.41894727170886 120.7198165907248 l 4.013251399968333 24.32147276089794 a45.65035951174847,45.65035951174847 0 0,0 -0.7764129157606837,0.12125972970373713 l -3.594002620599132 -24.386950797948785" fill="#fdff18" stroke="none" /><line stroke="#e1ed5e" stroke-width="0.3" x1="102.19456741930631" x2="102.32365962044197" y1="184.97166512339345" y2="189.96999836594603" /><path d="M 102.22038585953345 185.97133177190398 a86.0,86.0 0 0,1 -42.740103519485714,-10.115201625700543" fill="none" id="id103" stroke="none" /><text fill="#e1ed5e" style="font-size:6.75px; font-family:Arial;" text-anchor="middle"><textPath startOffset="22.20632615414155" xlink:href="#id103">July</textPath></text><path d="M 98.37488393609728 120.93702456842531 l -2.0158633510809727 25.97117919492613 a47.04929660902949,47.04929660902949 0 0,0 -0.8069081676193136,-0.06962343199469226 l 2.4626158364418282 -25.932631510652776" fill="#eaff1a" stroke="none" /><path d="M 96.93821686468263 120.77559828337769 l -5.364991283736373 36.403918494108645 a57.79712506705208,57.79712506705208 0 0,0 -0.9830028695468658,-0.15352483174815182 l 5.990830016891756 -36.30617535501339" fill="#65ff29" stroke="none" /><path d="M 95.51606077576429 120.51570834832081 l -10.958753126036624 50.140417109096305 a72.32402651732983,72.32402651732983 0 0,0 -1.2139410505778598,-0.2762890308587714 l 11.820214326007347 -49.94435134465985" fill="#3dffab" stroke="none" /><path d="M 94.46302465271185 120.25689768951611 l -9.546906778231824 34.9271401312464 a57.20840436666564,57.20840436666564 0 0,0 -0.9476676572205182,-0.2678203459268906 l 10.146705603556956 -34.75763099198099" fill="#6cff28" stroke="none" /><path d="M 93.08242187328487 119.8279376855182 l -16.0398172179828 45.97512170582267 a69.69278747670444,69.69278747670444 0 0,0 -1.129290111595813,-0.4049232558005878 l 16.82882689020834 -45.692210908982126" fill="#39ff8b" stroke="none" /><path d="M 91.07499286063937 119.00905698771935 l -25.699900128312837 54.737308160046105 a81.47030487117709,81.47030487117709 0 0,0 -1.2642923948416565,-0.6069371804463108 l 26.638305191154735 -54.286816703100236" fill="#49ecff" stroke="none" /><path d="M 90.10565033884886 118.52300852407294 l -12.419887084699301 23.25101519720735 a47.360259917107186,47.360259917107186 0 0,0 -0.7157650534124671,-0.39029217684488837 l 12.818274949980408 -23.033782368602697" fill="#e6ff1a" stroke="none" /><line stroke="#e1ed5e" stroke-width="0.3" x1="58.666819895761336" x2="56.23545636021788" y1="174.27360380694188" y2="178.64263932499728" /><path d="M 58.180547188652646 175.14741091055294 a86.0,86.0 0 0,1 -31.652253787137756,-30.449443065178592" fill="none" id="id104" stroke="none" /><text fill="#e1ed5e" style="font-size:6.75px; font-family:Arial;" text-anchor="middle"><textPath startOffset="22.20632615414155" xlink:href="#id104">August</textPath></text><path d="M 86.51685102203217 116.09983520530335 l -35.642397678174405 42.55954820926279 a76.51302240038544,76.51302240038544 0 0,0 -1.0024463787513829,-0.8543065515816832 l 36.36970953350284 -41.93971726745816" fill="#43ffdc" stroke="none" /><path d="M 85.70375840098266 115.38237550388516 l -10.842765024006006 11.666526614317782 a36.92712769486052,36.92712769486052 0 0,0 -0.46187777068163305,-0.436734261136354 l 11.041978629078455 -11.478157716435497" fill="#ff850c" stroke="none" /><path d="M 82.44556493220864 111.52570212397912 l -24.346551433443437 15.98519681689257 a50.1252653889385,50.1252653889385 0 0,0 -0.4673468183375742,-0.7253326404715922 l 24.618103115158057 -15.563742576499529" fill="#c2ff1e" stroke="none" /><path d="M 82.05923443525364 110.91462005526583 l -53.82229669423909 32.743860165797486 a84.0,84.0 0 0,0 -0.7408764972070725,-1.2417516244555555 l 54.3779540671444 -31.812546447455823" fill="#4dd2ff" stroke="none" /><line stroke="#e1ed5e" stroke-width="0.3" x1="26.63291911575756" x2="22.317208475507996" y1="142.92168965132927" y2="145.44649492493687" /><path d="M 25.769776987707644 143.4266507060508 a86.0,86.0 0 0,1 -11.730757126820373,-40.83630448921669" fill="none" id="id105" stroke="none" /><text fill="#e1ed5e" style="font-size:6.75px; font-family:Arial;" text-anchor="middle"><textPath startOffset="21.46611528233685" xlink:href="#id105">September</textPath></text><path d="M 81.18737489456691 109.33194174019688 l -26.264336609943822 13.028339092247775 a50.31813426981715,50.31813426981715 0 0,0 -0.3782168394149497,-0.779238713322201 l 26.48470670597349 -12.574311422960289" fill="#c0ff1e" stroke="none" /><path d="M 80.73074385275274 108.34839909993369 l -19.571002523179665 8.479130621378651 a42.32884891072901,42.32884891072901 0 0,0 -0.2839036588731087,-0.6710643857909501 l 19.71405716324508 -8.140991709921543" fill="#ffd313" stroke="none" /><path d="M 80.20201598880116 107.00284435728193 l -27.505542102929407 9.7291234400697 a50.17551523603544,50.17551523603544 0 0,0 -0.2810047930431194,-0.8167314640112283 l 27.668937726915754 -9.254219272969173" fill="#c1ff1e" stroke="none" /><path d="M 79.29508885075956 103.50808413554451 l -42.45466149883337 7.193197952430397 a64.05973037262743,64.05973037262743 0 0,0 -0.1748472076689401,-1.0887737290592008 l 42.572190460863595 -6.461344993677983" fill="#31ff43" stroke="none" /><path d="M 79.04373962182676 101.35467743843564 l -36.330396612631596 2.348509120062806 a57.406224922643815,57.406224922643815 0 0,0 -0.05525663273608375,-0.9866442968091266 l 36.365439596255214 -1.7227931069182416" fill="#69ff28" stroke="none" /><line stroke="#e1ed5e" stroke-width="0.3" x1="15.007084014347285" x2="10.007500721073583" y1="101.09737516637583" y2="101.16192664675087" /><path d="M 14.007167355692545 101.11028546245083 a86.0,86.0 0 0,1 10.666146001902534,-42.60595125391555" fill="none" id="id106" stroke="none" /><text fill="#e1ed5e" style="font-size:6.75px; font-family:Arial;" text-anchor="middle"><textPath startOffset="22.20632615414155" xlink:href="#id106">October</textPath></text><path d="M 79.03285615573316 98.82574320788736 l -46.02844182224475 -2.577805105053045 a67.10056979846786,67.10056979846786 0 0,0 0.07451169671273299,-1.152662968488352 l 45.9772495345276 3.3697271377944085" fill="#36ff6b" stroke="none" /><path d="M 80.803312248108 91.48605970444005 l -35.84511571662348 -15.897699595009097 a60.21235995386251,60.21235995386251 0 0,0 0.4283612889178919,-0.9438373186900283 l 35.56615211074224 16.512358922541196" fill="#49ff2c" stroke="none" /><path d="M 80.95270993114464 91.15688171328213 l -10.438173329333466 -4.846148775751103 a32.508284859609724,32.508284859609724 0 0,0 0.24000681903527307,-0.5055155702582672 l 10.353208316456442 5.025106761649902" fill="#ff4206" stroke="none" /><line stroke="#e1ed5e" stroke-width="0.3" x1="26.266209847984243" x2="21.928928074336255" y1="57.711370442889674" y2="55.22380399835377" /><path d="M 25.398753493254645 57.213857153982495 a86.0,86.0 0 0,1 29.58750427330803,-30.492523968695096" fill="none" id="id107" stroke="none" /><text fill="#e1ed5e" style="font-size:6.75px; font-family:Arial;" text-anchor="middle"><textPath startOffset="21.46611528233685" xlink:href="#id107">November</textPath></text><path d="M 82.95767976084542 87.72973835380427 l -32.12393652573493 -23.12884048329003 a60.583968472235355,60.583968472235355 0 0,0 0.616621864038666,-0.8410715295751591 l 31.72105204918263 23.67837445653669" fill="#45ff2d" stroke="none" /><path d="M 83.39014120810768 87.1503855733568 l -31.431266132370578 -24.315658296825163 a60.73884408348924,60.73884408348924 0 0,0 0.6468568870814949,-0.8214425572481368 l 31.00805516469511 24.853093248026347" fill="#44ff2d" stroke="none" /><path d="M 86.37877921826538 84.01681056812374 l -30.576699838217667 -35.87880950958473 a68.14046610738515,68.14046610738515 0 0,0 0.8992674576073801,-0.7531106341985833 l 29.95457484365118 36.39982130117713" fill="#37ff78" stroke="none" /><path d="M 87.22198572758235 83.33499621200491 l -31.19414672549286 -40.68320493785575 a72.26595316530404,72.26595316530404 0 0,0 0.9936700918475045,-0.7484117122381202 l 30.489230479886967 41.214133239599725" fill="#3dffab" stroke="none" /><path d="M 88.39885842347998 82.49532879139004 l -26.77535361017459 -40.400658706638005 a69.46785310780884,69.46785310780884 0 0,0 1.0024309590304554,-0.6520089801845957 l 26.07595562535985 40.85556661098214" fill="#39ff89" stroke="none" /><path d="M 89.00827224532344 82.1063720568725 l -12.041520071363292 -19.602603415555315 a44.00565726721551,44.00565726721551 0 0,0 0.6488486090930906,-0.39092402696195266 l 11.702309396052552 19.806974051975885" fill="#ffeb16" stroke="none" /><line stroke="#e1ed5e" stroke-width="0.3" x1="56.762969772571076" x2="54.21961505331055" y1="26.818313649435495" y2="22.513508569990535" /><path d="M 56.25429882871897 25.957352633546506 a86.0,86.0 0 0,1 42.265352541879196,-11.944610805530505" fill="none" id="id108" stroke="none" /><text fill="#e1ed5e" style="font-size:6.75px; font-family:Arial;" text-anchor="middle"><textPath startOffset="22.20632615414155" xlink:href="#id108">December</textPath></text><path d="M 90.58718382345135 81.22770947309562 l -13.905374274167494 -27.73194768324132 a52.02290050931268,52.02290050931268 0 0,0 0.8039488566061861,-0.39449421242510413 l 13.425954150550883 27.967197055801254" fill="#aaff21" stroke="none" /><path d="M 92.57280143429618 80.3572730644239 l -12.107112439095673 -32.019704538078045 a55.232201949607635,55.232201949607635 0 0,0 0.8921780518002693,-0.32859670587834516 l 11.554152061522833 32.22336451176271" fill="#83ff25" stroke="none" /><path d="M 94.98787191387505 79.60689891045804 l -7.493474152453675 -30.489080342119564 a52.396435705055964,52.396435705055964 0 0,0 0.877705950887106,-0.20772464103304447 l 6.967544514604035 30.613550895293482" fill="#a5ff21" stroke="none" /><path d="M 96.75951476605007 79.25152402106235 l -5.866172146532734 -37.56046489441543 a59.01579275429319,59.01579275429319 0 0,0 1.005041815882354,-0.14811703808401777 l 5.218761350221731 37.65587641666042" fill="#57ff2a" stroke="none" /><path d="M 97.83486435360386 79.11191278185805 l -3.518022081425529 -33.94002227734814 a55.1218638346777,55.1218638346777 0 0,0 0.9446177972406635,-0.08970284199326059 l 2.9332791570946295 33.995550663856584" fill="#84ff25" stroke="none" /></svg>