<?xml version="1.0" encoding="utf-8" ?>
<svg baseProfile="full" height="200mm" version="1.1" viewBox="0,0,200,200" width="200mm" xmlns="http://www.w3.org/2000/svg" xmlns:ev="http://www.w3.org/2001/xml-events" xmlns:xlink="http://www.w3.org/1999/xlink"><defs /><rect fill="#1a1a1a" height="200" width="200" x="0" y="0" /><circle cx="100.0" cy="100.0" fill="none" r="47.05352700534504" stroke="darkgrey" stroke-opacity="0.2" stroke-width="0.3" /><circle cx="100.0" cy="100.0" fill="none" r="73.10705401069008" stroke="darkgrey" stroke-opacity="0.2" stroke-width="0.3" /><text alignment-baseline="middle" fill="#e1ed5e" style="dominant-baseline: central; font-size:9.0px; font-family:Arial;" text-anchor="middle" x="100.0" y="100.0">2016</text><line stroke="#e1ed5e" stroke-width="0.3" x1="100.0" x2="100.0" y1="15.0" y2="10.0" /><path d="M 100.0 14.0 a86.0,86.0 0 0,1 42.35913384403234,11.155469271406648" fill="none" id="id61" stroke="none" /><text fill="#e1ed5e" style="font-size:6.75px; font-family:Arial;" text-anchor="middle"><textPath startOffset="22.145653131862478" xlink:href="#id61">January</textPath></text><path d="M 104.64783097203109 79.52079915486377 l 8.1208718396304 -35.782059726824706 a57.692020354972996,57.692020354972996 0 0,0 0.9639178537306711,0.22748198886819546 l -8.733921847100957 35.637381594310284" fill="#80ff26" stroke="none" /><path d="M 108.07796709384702 80.6158196554323 l 19.298689275461232 -46.3098288199587 a71.17010716636631,71.17010716636631 0 0,0 1.1236910110823184,0.4796368738332346 l -20.09081536171398 45.97171729646607" fill="#3aff90" stroke="none" /><line stroke="#e1ed5e" stroke-width="0.3" x1="143.13028292997686" x2="145.6673583964461" y1="26.7553504044142" y2="22.446841604673864" /><path d="M 143.63769802327073 25.89364864446614 a86.0,86.0 0 0,1 29.32050498858742,28.57503671076993" fill="none" id="id62" stroke="none" /><text fill="#e1ed5e" style="font-size:6.75px; font-family:Arial;" text-anchor="middle"><textPath startOffset="20.669276256404974" xlink:href="#id62">February</textPath></text><path d="M 113.31354834802062 83.75963576809568 l 11.970576693287498 -14.6021571772665 a39.88167631857599,39.88167631857599 0 0,0 0.5257272191252226,0.438580344330744 l -12.219478246574612 14.394514649023886" fill="#ff7a0b" stroke="none" /><path d="M 115.6541949942343 86.00192230759917 l 19.256085220303092 -17.21891014290885 a46.8319121344345,46.8319121344345 0 0,0 0.5307369972218503,0.6038812767916648 l -19.54883328148353 16.88581658830589" fill="#ffe715" stroke="none" /><path d="M 117.62189284568427 88.57770195909679 l 34.8453066297583 -22.58630676835812 a62.52513272171755,62.52513272171755 0 0,0 0.5760717623997864,0.9056804934689328 l -35.227896083783975 21.984812600210514" fill="#44ff2d" stroke="none" /><line stroke="#e1ed5e" stroke-width="0.3" x1="172.87174338648825" x2="177.1583165268699" y1="56.24261187166439" y2="53.66864786411523" /><path d="M 173.72905801456457 55.72781907015455 a86.0,86.0 0 0,1 12.242430191666344,42.057860355516425" fill="none" id="id63" stroke="none" /><text fill="#e1ed5e" style="font-size:6.75px; font-family:Arial;" text-anchor="middle"><textPath startOffset="22.145653131862474" xlink:href="#id63">March</textPath></text><line stroke="#e1ed5e" stroke-width="0.3" x1="184.99686870605535" x2="189.99668451229388" y1="99.2704041080226" y2="99.22748670261217" /><path d="M 185.99683186730306 99.26182062694052 a86.0,86.0 0 0,1 -10.086455211305974,41.156179273409016" fill="none" id="id64" stroke="none" /><text fill="#e1ed5e" style="font-size:6.75px; font-family:Arial;" text-anchor="middle"><textPath startOffset="21.40746469413373" xlink:href="#id64">April</textPath></text><path d="M 120.99303781780057 100.54070618675476 l 11.684053633348372 0.30093977540348793 a32.68792856135685,32.68792856135685 0 0,0 -0.01926301654150166,0.5608217088110835 l -11.677165929810023 -0.5014677487786822" fill="#ff0000" stroke="none" /><path d="M 120.9064616781168 101.97986365728391 l 36.7639498547782 3.481584274582041 a57.92843671191163,57.92843671191163 0 0,0 -0.10225088362798986,0.9891845445767107 l -36.69876657866854 -4.112173341441683" fill="#7dff26" stroke="none" /><line stroke="#e1ed5e" stroke-width="0.3" x1="174.33088141563837" x2="178.70328620479359" y1="141.23008692659167" y2="143.65538615756765" /><path d="M 175.20536237346943 141.71514677278685 a86.0,86.0 0 0,1 -30.301960400862466,31.631185727798858" fill="none" id="id65" stroke="none" /><text fill="#e1ed5e" style="font-size:6.75px; font-family:Arial;" text-anchor="middle"><textPath startOffset="22.145653131862474" xlink:href="#id65">May</textPath></text><path d="M 117.62189284568427 111.42229804090321 l 22.976368676326217 14.893004583383625 a48.38092589871917,48.38092589871917 0 0,0 -0.4577194094506084,0.693045524520075 l -22.717324827954883 -15.285229986242761" fill="#fffe18" stroke="none" /><path d="M 115.16444852881244 114.52719865689866 l 27.246639991627987 26.10166476804789 a58.73163519511093,58.73163519511093 0 0,0 -0.7036978383374144,0.7220559745301653 l -26.794555352139767 -26.565543434645793" fill="#72ff27" stroke="none" /><path d="M 114.39649973595853 115.28858382429668 l 27.118708712389655 28.799128882729715 a60.557732324180506,60.557732324180506 0 0,0 -0.7629415757007616,0.7061673324122559 l -26.620337365374922 -29.26041396127435" fill="#5cff2a" stroke="none" /><line stroke="#e1ed5e" stroke-width="0.3" x1="143.1302829299769" x2="145.66735839644613" y1="173.24464959558577" y2="177.55315839532614" /><path d="M 143.63769802327073 174.10635135553383 a86.0,86.0 0 0,1 -40.68552437913181,11.842963189579606" fill="none" id="id66" stroke="none" /><text fill="#e1ed5e" style="font-size:6.75px; font-family:Arial;" text-anchor="middle"><textPath startOffset="21.407464694133747" xlink:href="#id66">June</textPath></text><path d="M 110.02825361518725 118.45085714620011 l 12.081965850863646 22.229456345414796 a46.3006448185444,46.3006448185444 0 0,0 -0.7015896675026276,0.3735569807499743 l -11.698587367574465 -22.43358379388734" fill="#ffdf14" stroke="none" /><path d="M 109.3889696526874 118.78422872680471 l 17.506183786610908 35.02409450083332 a60.15550620760638,60.15550620760638 0 0,0 -0.9276544826564422,0.4537622928261962 l -16.902369054692397 -35.319450543756744" fill="#61ff29" stroke="none" /><line stroke="#e1ed5e" stroke-width="0.3" x1="101.45913802915013" x2="101.54496967792366" y1="184.9874750549273" y2="189.98673829345242" /><path d="M 101.47630435890484 185.9873277026323 a86.0,86.0 0 0,1 -42.54439059252881,-10.42667462771756" fill="none" id="id67" stroke="none" /><text fill="#e1ed5e" style="font-size:6.75px; font-family:Arial;" text-anchor="middle"><textPath startOffset="22.145653131862474" xlink:href="#id67">July</textPath></text><path d="M 96.76829788921471 120.74984581791261 l -8.128967801391301 52.193804612968584 a73.82303813198175,73.82303813198175 0 0,0 -1.2505007360246405,-0.20576942024151196 l 9.023746040469005 -52.04656919423141" fill="#3effb3" stroke="none" /><line stroke="#e1ed5e" stroke-width="0.3" x1="58.13341422392154" x2="55.67067388415222" y1="173.97424548756322" y2="178.32567169271397" /><path d="M 57.64086615596768 174.84453072859336 a86.0,86.0 0 0,1 -31.369924170532247,-30.572349798747897" fill="none" id="id68" stroke="none" /><text fill="#e1ed5e" style="font-size:6.75px; font-family:Arial;" text-anchor="middle"><textPath startOffset="22.145653131862474" xlink:href="#id68">August</textPath></text><path d="M 87.83215693770417 117.11559508785305 l -11.391636711451323 16.023763648405808 a40.66037610081905,40.66037610081905 0 0,0 -0.5654096165131529,-0.4093129592092474 l 11.66502733833843 -15.825849917823495" fill="#ff870c" stroke="none" /><path d="M 84.83555147118756 114.52719865689866 l -17.267506127654535 16.541880263501863 a44.91235184001397,44.91235184001397 0 0,0 -0.5285631309735389,-0.5613157283042599 l 17.548925092364325 -16.243023075253113" fill="#ffca12" stroke="none" /><path d="M 83.8745106332314 113.45245675266167 l -39.358702441766454 32.83442941768186 a72.25628949781914,72.25628949781914 0 0,0 -0.7864002283209974,-0.9592804116630933 l 39.91654948932609 -32.15394672432027" fill="#3bff9f" stroke="none" /><path d="M 81.99639281039703 110.81064883170644 l -17.18095690447082 10.316670972147126 a41.04043363055866,41.04043363055866 0 0,0 -0.3574940123192146,-0.607102988574228 l 17.355524626919802 -10.020216815279339" fill="#ff8d0d" stroke="none" /><line stroke="#e1ed5e" stroke-width="0.3" x1="26.387840678322732" x2="22.057713659400548" y1="142.50000000000003" y2="145.00000000000006" /><path d="M 25.521815274538298 143.00000000000003 a86.0,86.0 0 0,1 -11.493303480769221,-40.785679425670985" fill="none" id="id69" stroke="none" /><text fill="#e1ed5e" style="font-size:6.75px; font-family:Arial;" text-anchor="middle"><textPath startOffset="21.40746469413373" xlink:href="#id69">September</textPath></text><path d="M 81.29705330413844 109.54985784667822 l -17.976200186339636 9.178775900642437 a41.183996139852276,41.183996139852276 0 0,0 -0.31609714629089897,-0.6324060376655873 l 18.131117245842272 -8.868838006813096" fill="#ff8f0d" stroke="none" /><path d="M 80.68587082218212 108.24405325689762 l -54.697260441346515 23.34700798225716 a80.47161576342171,80.47161576342171 0 0,0 -0.5313968264179497,-1.2751589351809176 l 55.08998311230095 -22.40461653763496" fill="#48faff" stroke="none" /><path d="M 79.2786578344484 103.40968896794605 l -62.16402649665483 10.22906690383814 a84.0,84.0 0 0,0 -0.2219140314469299,-1.4248472722742 l 62.33046202024003 -9.16043144963249" fill="#4dd2ff" stroke="none" /><path d="M 79.03789590574601 101.26102812881392 l -25.61136614236769 1.5407161884923104 a46.657667120217695,46.657667120217695 0 0,0 -0.041232959115027175,-0.7999083913579739 l 25.634040690939287 -1.1008360037576057" fill="#ffe415" stroke="none" /><line stroke="#e1ed5e" stroke-width="0.3" x1="15.003131293944662" x2="10.003315487706104" y1="100.72959589197737" y2="100.7725132973878" /><path d="M 14.003168132696942 100.73817937305945 a86.0,86.0 0 0,1 10.791469493833604,-42.45332614584628" fill="none" id="id70" stroke="none" /><text fill="#e1ed5e" style="font-size:6.75px; font-family:Arial;" text-anchor="middle"><textPath startOffset="22.145653131862435" xlink:href="#id70">October</textPath></text><path d="M 80.41425534168474 92.42381321644754 l -18.003599342807014 -6.964178987161418 a40.303610498078896,40.303610498078896 0 0,0 0.2551435896792164,-0.6431285181202954 l 17.881397078161665 7.272208522495296" fill="#ff810b" stroke="none" /><line stroke="#e1ed5e" stroke-width="0.3" x1="26.387840678322718" x2="22.05771365940052" y1="57.49999999999999" y2="54.99999999999999" /><path d="M 25.521815274538284 56.99999999999999 a86.0,86.0 0 0,1 29.574782752854787,-30.34633250058573" fill="none" id="id71" stroke="none" /><text fill="#e1ed5e" style="font-size:6.75px; font-family:Arial;" text-anchor="middle"><textPath startOffset="21.40746469413373" xlink:href="#id71">November</textPath></text><path d="M 81.81346652052679 89.5 l -17.884958269307894 -10.325885471230139 a41.651770942460274,41.651770942460274 0 0,0 0.3628192345251677,-0.6161463800847141 l 17.70506532465295 10.631383019608426" fill="#ff970d" stroke="none" /><path d="M 82.78059297857968 87.97951657250589 l -22.68113710278523 -15.833195203621111 a48.660875810995414,48.660875810995414 0 0,0 0.4840248690107158,-0.6808415943585854 l 22.40599713524454 16.220214024689216" fill="#fcff18" stroke="none" /><path d="M 83.8745106332314 86.54754324733833 l -38.72473148905328 -32.30554830097023 a71.43067796416776,71.43067796416776 0 0,0 0.7935793095910902,-0.9348344312715131 l 38.16445761595508 32.965549514691304" fill="#3aff94" stroke="none" /><path d="M 85.34317274990677 84.96080404539775 l -38.075001896484025 -39.06830617038439 a75.55307797402597,75.55307797402597 0 0,0 0.9365973797239668,-0.8972391030856958 l 37.398732030894756 39.716157403775654" fill="#40ffc9" stroke="none" /><line stroke="#e1ed5e" stroke-width="0.3" x1="56.869717070023135" x2="54.33264160355391" y1="26.7553504044142" y2="22.446841604673864" /><path d="M 56.362301976729285 25.89364864446614 a86.0,86.0 0 0,1 42.16139366436587,-11.88097634709845" fill="none" id="id72" stroke="none" /><text fill="#e1ed5e" style="font-size:6.75px; font-family:Arial;" text-anchor="middle"><textPath startOffset="22.145653131862474" xlink:href="#id72">December</textPath></text><path d="M 92.25597844496254 80.48000691201159 l -10.975087444867246 -27.664389818816876 a50.76190532324739,50.76190532324739 0 0,0 0.8127409799215779,-0.31438567069846424 l 10.498574202452138 27.84871537765338" fill="#deff1b" stroke="none" /></svg>