<?xml version="1.0" encoding="utf-8" ?>
<svg baseProfile="full" height="200mm" version="1.1" viewBox="0,0,200,200" width="200mm" xmlns="http://www.w3.org/2000/svg" xmlns:ev="http://www.w3.org/2001/xml-events" xmlns:xlink="http://www.w3.org/1999/xlink"><defs /><rect fill="#1a1a1a" height="200" width="200" x="0" y="0" /><circle cx="100.0" cy="100.0" fill="none" r="41.582881409231845" stroke="darkgrey" stroke-opacity="0.2" stroke-width="0.3" /><circle cx="100.0" cy="100.0" fill="none" r="62.1657628184637" stroke="darkgrey" stroke-opacity="0.2" stroke-width="0.3" /><circle cx="100.0" cy="100.0" fill="none" r="82.74864422769555" stroke="darkgrey" stroke-opacity="0.2" stroke-width="0.3" /><text alignment-baseline="middle" fill="#e1ed5e" style="dominant-baseline: central; font-size:9.0px; font-family:Arial;" text-anchor="middle" x="100.0" y="100.0">2020</text><line stroke="#e1ed5e" stroke-width="0.3" x1="100.0" x2="100.0" y1="15.0" y2="10.0" /><path d="M 100.0 14.0 a86.0,86.0 0 0,1 42.35913384403234,11.155469271406648" fill="none" id="id109" stroke="none" /><text fill="#e1ed5e" style="font-size:6.75px; font-family:Arial;" text-anchor="middle"><textPath startOffset="22.145653131862478" xlink:href="#id109">January</textPath></text><path d="M 100.72087961077811 79.0123766808444 l 1.4523567163274955 -42.283781135695655 a63.30871644428454,63.30871644428454 0 0,0 1.0858175615551198,0.046629678078592564 l -2.1780000384834515 42.252618889191226" fill="#2fff30" stroke="none" /><path d="M 102.87502721639298 79.19773525538626 l 4.6474379659002745 -33.626546002621254 a54.94618204913911,54.94618204913911 0 0,0 0.933234460935132,0.1371533280638136 l -5.2239975324430885 33.54181160125855" fill="#92ff23" stroke="none" /><path d="M 104.9986988182912 79.60360301121754 l 12.43654120408121 -50.74533209274343 a73.24706964341279,73.24706964341279 0 0,0 1.218673258102825,0.30978197662503376 l -13.305819755409429 50.52436488428313" fill="#3effb2" stroke="none" /><path d="M 106.38641147887787 79.99465700312896 l 17.866254363223828 -55.9657873263808 a79.7483820716205,79.7483820716205 0 0,0 1.3005717889957358,0.4275237796810752 l -18.824348889867306 55.650842625297706" fill="#47fffe" stroke="none" /><path d="M 107.74402155503746 80.48000691201159 l 9.728354264011866 -24.52180777666953 a47.381052543862765,47.381052543862765 0 0,0 0.7534614819583019,0.30642622534012576 l -10.147870207160608 24.35119429475011" fill="#f6ff19" stroke="none" /><path d="M 108.4095320186766 80.7573450057729 l 9.155710221648443 -20.95005674882072 a43.863331066176826,43.863331066176826 0 0,0 0.6873730647611901,0.307453228835265 l -9.513996689265266 20.789799769075604" fill="#ffd614" stroke="none" /><path d="M 110.34350942703115 81.72400993836675 l 20.46733953136777 -36.16382780933142 a62.553994143947975,62.553994143947975 0 0,0 0.9299918160551024,0.5369310253435624 l -21.08512381528327 35.80714988671169" fill="#38ff2e" stroke="none" /><line stroke="#e1ed5e" stroke-width="0.3" x1="143.13028292997686" x2="145.6673583964461" y1="26.7553504044142" y2="22.446841604673864" /><path d="M 143.63769802327073 25.89364864446614 a86.0,86.0 0 0,1 29.32050498858742,28.57503671076993" fill="none" id="id110" stroke="none" /><text fill="#e1ed5e" style="font-size:6.75px; font-family:Arial;" text-anchor="middle"><textPath startOffset="20.669276256404974" xlink:href="#id110">February</textPath></text><path d="M 111.5731344415666 82.4767994020092 l 14.121232962082132 -21.38134652586209 a46.623645322794914,46.623645322794914 0 0,0 0.6640621608808027,0.44681065799322683 l -14.486191411059936 21.135786193811743" fill="#fffd17" stroke="none" /><path d="M 112.16784306229584 82.88440491214696 l 19.60669849748088 -27.579276850829284 a54.83842693722341,54.83842693722341 0 0,0 0.7625648584232839,0.5520381501734776 l -20.077244366278133 27.23863792928273" fill="#93ff23" stroke="none" /><path d="M 114.91283532996326 85.21462403516908 l 25.208273969894638 -24.992819931464467 a56.497860846364745,56.497860846364745 0 0,0 0.676933690270959,0.6945936008212273 l -25.633594461316406 24.5564036385755" fill="#7fff26" stroke="none" /><path d="M 116.1254893667686 86.54754324733833 l 22.424822409943644 -18.70758442082164 a50.203533604337665,50.203533604337665 0 0,0 0.5463893947967534,0.6665062199791554 l -22.742658623979022 18.31987591914399" fill="#d0ff1d" stroke="none" /><path d="M 117.01052211995028 87.68569379921539 l 49.64213086645807 -35.93707445534731 a82.28470018994729,82.28470018994729 0 0,0 0.8184776900794699,1.1512913718660627 l -50.2517236550675 35.07960585677174" fill="#4be4ff" stroke="none" /><line stroke="#e1ed5e" stroke-width="0.3" x1="172.87174338648825" x2="177.1583165268699" y1="56.24261187166439" y2="53.66864786411523" /><path d="M 173.72905801456457 55.72781907015455 a86.0,86.0 0 0,1 12.242430191666344,42.057860355516425" fill="none" id="id111" stroke="none" /><text fill="#e1ed5e" style="font-size:6.75px; font-family:Arial;" text-anchor="middle"><textPath startOffset="22.145653131862474" xlink:href="#id111">March</textPath></text><path d="M 119.31412917781788 91.75594674310238 l 28.763592320574933 -12.277467172729231 a52.27427766330793,52.27427766330793 0 0,0 0.34519482416307656,0.8283419142280402 l -28.97011298927449 11.781892749059914" fill="#b4ff20" stroke="none" /><path d="M 119.58574465831526 92.42381321644754 l 40.83764341240191 -15.79687776441586 a64.78646442203788,64.78646442203788 0 0,0 0.3923262085062204,1.0406918792202882 l -41.10280030472257 15.093517605001415" fill="#31ff44" stroke="none" /><path d="M 120.96210409425399 98.7389718711861 l 13.288916764405837 -0.7994282332552688 a34.312940857355,34.312940857355 0 0,0 0.030323506827768354,0.5882679314687537 l -13.300681860690178 0.5711885084097845" fill="#ff4406" stroke="none" /><line stroke="#e1ed5e" stroke-width="0.3" x1="184.99686870605535" x2="189.99668451229388" y1="99.2704041080226" y2="99.22748670261217" /><path d="M 185.99683186730306 99.26182062694052 a86.0,86.0 0 0,1 -10.086455211305974,41.156179273409016" fill="none" id="id112" stroke="none" /><text fill="#e1ed5e" style="font-size:6.75px; font-family:Arial;" text-anchor="middle"><textPath startOffset="21.40746469413373" xlink:href="#id112">April</textPath></text><path d="M 120.99303781780057 100.54070618675476 l 27.27913609036193 0.7026137799302525 a48.28818300950495,48.28818300950495 0 0,0 -0.028456256147438866,0.8284728492336372 l -27.263055147217646 -1.1707928937280003" fill="#eaff1a" stroke="none" /><path d="M 120.86939407059847 102.33845913500097 l 22.240816539452336 2.492129883149586 a43.38000517640833,43.38000517640833 0 0,0 -0.08927587246520759,0.7393322927491337 l -22.194758580727466 -2.873555852822128" fill="#ffcf13" stroke="none" /><path d="M 120.82617615685814 102.69636545807757 l 15.194934165612857 1.9672884409185862 a36.321757343956364,36.321757343956364 0 0,0 -0.08536561396549097,0.6176630578212496 l -15.158924035092156 -2.227839806939921" fill="#ff6409" stroke="none" /><path d="M 120.592083275326 104.11899336999214 l 23.44749820472636 4.690156326431297 a44.91197897345616,44.91197897345616 0 0,0 -0.15771010194812696,0.7546999295213476 l -23.36353039195387 -5.091972707238053" fill="#ffe515" stroke="none" /><path d="M 120.43855184770803 104.8234425847677 l 13.24323439346232 3.125367257399391 a34.60702677640518,34.60702677640518 0 0,0 -0.14141497940952896,0.5770213739709432 l -13.187631887536494 -3.3522444559784335" fill="#ff4806" stroke="none" /><path d="M 120.16314734710363 105.8691983318838 l 36.55799968337596 10.641500905834535 a59.075305414121026,59.075305414121026 0 0,0 -0.2917860987839111,0.9712610245661587 l -36.369937264588415 -11.267499533991417" fill="#60ff29" stroke="none" /><path d="M 119.94978838288452 106.5578916946017 l 24.99287366841204 8.215653996356345 a47.30856713682921,47.30856713682921 0 0,0 -0.2602299613726807,0.7693236409644731 l -24.848158285466997 -8.643479311794978" fill="#f7ff18" stroke="none" /><path d="M 119.71291397450082 107.23885506374661 l 42.32470898675 15.54221939824069 a66.08815337354287,66.08815337354287 0 0,0 -0.40020882249903883,1.0616014493471149 l -42.051669480436516 -16.266489127781963" fill="#33ff56" stroke="none" /><path d="M 119.16976305983485 108.57439118712176 l 41.45879906491677 18.54399348710244 a66.4170861499815,66.4170861499815 0 0,0 -0.4744568915027294,1.0367739337695299 l -41.13435770855899 -19.252956403086657" fill="#34ff5a" stroke="none" /><path d="M 118.8641267826498 109.22738970284198 l 11.954768786422152 5.847676474542497 a34.30833636814651,34.30833636814651 0 0,0 -0.26332479206566356,0.5268259784164792 l -11.852624081144755 -6.052034309122722" fill="#ff4406" stroke="none" /><line stroke="#e1ed5e" stroke-width="0.3" x1="174.33088141563837" x2="178.70328620479359" y1="141.23008692659167" y2="143.65538615756765" /><path d="M 175.20536237346943 141.71514677278685 a86.0,86.0 0 0,1 -30.301960400862466,31.631185727798858" fill="none" id="id113" stroke="none" /><text fill="#e1ed5e" style="font-size:6.75px; font-family:Arial;" text-anchor="middle"><textPath startOffset="22.145653131862474" xlink:href="#id113">May</textPath></text><path d="M 118.36410011445183 110.18625677009912 l 30.654250753554525 17.00339615470624 a56.05422328415903,56.05422328415903 0 0,0 -0.4739695145194487,0.8374587172741436 l -30.357847874013697 -17.527111642079507" fill="#84ff25" stroke="none" /><path d="M 116.57777611688842 112.89097897827486 l 21.66098322588956 16.843711571737476 a48.43918391323167,48.43918391323167 0 0,0 -0.51607007208177,0.652037677396158 l -21.36864672316623 -17.21306919304832" fill="#e8ff1a" stroke="none" /><path d="M 116.1254893667686 113.45245675266167 l 28.447758976007428 23.732132317394033 a58.04711992972341,58.04711992972341 0 0,0 -0.644890888207571,0.7596798447534451 l -28.036173524292742 -24.216978944597034" fill="#6cff28" stroke="none" /><path d="M 114.91283532996324 114.78537596483092 l 33.35133183241262 33.06627942704368 a67.96477584470122,67.96477584470122 0 0,0 -0.8285491315618717,0.8214675576053981 l -32.77879078072078 -33.63392699487774" fill="#36ff6f" stroke="none" /><line stroke="#e1ed5e" stroke-width="0.3" x1="143.1302829299769" x2="145.66735839644613" y1="173.24464959558577" y2="177.55315839532614" /><path d="M 143.63769802327073 174.10635135553383 a86.0,86.0 0 0,1 -40.68552437913181,11.842963189579606" fill="none" id="id114" stroke="none" /><text fill="#e1ed5e" style="font-size:6.75px; font-family:Arial;" text-anchor="middle"><textPath startOffset="21.407464694133747" xlink:href="#id114">June</textPath></text><path d="M 108.73861861582097 119.09545874513695 l 12.623439322206528 27.584493087102 a51.33571293366629,51.33571293366629 0 0,0 -0.8044711943486009,0.3598297327716364 l -12.1480547250023 -27.797126570783487" fill="#c1ff1e" stroke="none" /><path d="M 106.38641147887787 120.00534299687104 l 6.308961825511413 19.762733060804536 a41.74532760282124,41.74532760282124 0 0,0 -0.6845425997082969,0.2120730472284974 l -5.968778592931492 -19.868122695839677" fill="#ffb711" stroke="none" /><path d="M 104.29559338865022 120.5559693870025 l 8.416238296887872 40.2747469631681 a62.14472396331296,62.14472396331296 0 0,0 -1.0461132536542659,0.20925194884122808 l -7.723628557702647 -40.413288308672186" fill="#3cff2e" stroke="none" /><path d="M 103.58742460773223 120.69131181640829 l 3.503989505332384 20.210080317781607 a41.511589136501904,41.511589136501904 0 0,0 -0.7031717209462579,0.11570663909348107 l -3.156540281333054 -20.267252955370758" fill="#ffb310" stroke="none" /><path d="M 102.875027216393 120.80226474461374 l 2.8431885832329877 20.571896255465326 a41.767441750621444,41.767441750621444 0 0,0 -0.7110850832729688,0.09206420044901233 l -2.4896256780692436 -20.61767205211473" fill="#ffb711" stroke="none" /><path d="M 102.15924093988457 120.88869738790638 l 2.661469181975913 25.747300045406554 a46.88449106771852,46.88449106771852 0 0,0 -0.8012792530797871,0.07588197835355466 l -2.2190903655111107 -25.789193779265293" fill="#fdff18" stroke="none" /><path d="M 101.44090949804482 120.95050786540614 l 1.9849379977211299 28.860562852856294 a49.928741193464774,49.928741193464774 0 0,0 -0.8555780718754639,0.05146945221625487 l -1.4892155737132007 -28.890384282897237" fill="#d3ff1c" stroke="none" /><line stroke="#e1ed5e" stroke-width="0.3" x1="101.45913802915013" x2="101.54496967792366" y1="184.9874750549273" y2="189.98673829345242" /><path d="M 101.47630435890484 185.9873277026323 a86.0,86.0 0 0,1 -42.54439059252881,-10.42667462771756" fill="none" id="id115" stroke="none" /><text fill="#e1ed5e" style="font-size:6.75px; font-family:Arial;" text-anchor="middle"><textPath startOffset="22.145653131862474" xlink:href="#id115">July</textPath></text><path d="M 100.36049292484886 120.99690560180557 l 0.4117286666480187 23.981130699833717 a44.98466489525019,44.98466489525019 0 0,0 -0.772221591496868,0.006628593610910558 l -2.9372743092590033e-15 -23.98466489525019" fill="#ffe615" stroke="none" /><path d="M 99.63950707515114 120.99690560180557 l -1.0814787745465488 62.990716805416696 a84.0,84.0 0 0,0 -1.4415467437170244,-0.03712913059981027 l 2.1626388323343173 -62.962869957466836" fill="#4dd2ff" stroke="none" /><path d="M 98.91894614982273 120.97215588758144 l -0.47420444871157624 9.199439620267796 a30.211653444747622,30.211653444747622 0 0,0 -0.5177063868337936,-0.031143930653553552 l 0.6320551876778161 -9.18994371178955" fill="#ff0000" stroke="none" /><path d="M 98.19965949673042 120.92268563240118 l -2.1113099891167058 24.536622430375054 a45.62729116571549,45.62729116571549 0 0,0 -0.7797930819492536,-0.07384721560840524 l 2.5322026344509747 -24.496763459261466" fill="#ffef16" stroke="none" /><path d="M 97.48249496171623 120.84855314841334 l -3.4934626726451214 28.930882399461645 a50.14104043881488,50.14104043881488 0 0,0 -0.8536444757308035,-0.1105213679411469 l 3.989584970266719 -28.8666494353201" fill="#d1ff1d" stroke="none" /><path d="M 96.41257539226777 120.69131181640829 l -7.018886514365689 40.48307221835387 a62.08702841698337,62.08702841698337 0 0,0 -1.0485767845967855,-0.1910856200840385 l 7.712798032513531 -40.356618424338464" fill="#3dff2e" stroke="none" /><path d="M 91.59046798132341 119.24265499422711 l -8.286111178532124 18.960243958663753 a41.69179763662501,41.69179763662501 0 0,0 -0.6533434196699238,-0.29223220142555123 l 8.610368001057683 -18.815208006328348" fill="#ffb610" stroke="none" /><path d="M 90.6110303473126 118.78422872680471 l -9.241849041116135 18.48988895147154 a41.67094016092467,41.67094016092467 0 0,0 -0.6371145014892926,-0.32531520408098386 l 9.55789076431901 -18.328515795717717" fill="#ffb610" stroke="none" /><line stroke="#e1ed5e" stroke-width="0.3" x1="58.13341422392154" x2="55.67067388415222" y1="173.97424548756322" y2="178.32567169271397" /><path d="M 57.64086615596768 174.84453072859336 a86.0,86.0 0 0,1 -31.369924170532247,-30.572349798747897" fill="none" id="id116" stroke="none" /><text fill="#e1ed5e" style="font-size:6.75px; font-family:Arial;" text-anchor="middle"><textPath startOffset="22.145653131862474" xlink:href="#id116">August</textPath></text><path d="M 89.65649057296885 118.27599006163327 l -25.778187819411865 45.54758785865108 a73.33639008371148,73.33639008371148 0 0,0 -1.0902939697172673,-0.6294815169120948 l 26.556274256989532 -45.09835944446281" fill="#3effb3" stroke="none" /><path d="M 84.3458050057657 113.99807769240083 l -33.521385170064896 29.975029322190515 a65.96871853395456,65.96871853395456 0 0,0 -0.747610720757663,-0.8506437632150963 l 34.031006954781155 -29.39517328116412" fill="#33ff54" stroke="none" /><path d="M 83.64595745247003 113.17365903436017 l -34.912053450603935 28.122678965212653 a65.83008530349056,65.83008530349056 0 0,0 -0.7013523788628772,-0.8861358193186702 l 35.38967226010838 -27.519223201979305" fill="#33ff52" stroke="none" /><line stroke="#e1ed5e" stroke-width="0.3" x1="26.387840678322732" x2="22.057713659400548" y1="142.50000000000003" y2="145.00000000000006" /><path d="M 25.521815274538298 143.00000000000003 a86.0,86.0 0 0,1 -11.493303480769221,-40.785679425670985" fill="none" id="id117" stroke="none" /><text fill="#e1ed5e" style="font-size:6.75px; font-family:Arial;" text-anchor="middle"><textPath startOffset="21.40746469413373" xlink:href="#id117">September</textPath></text><path d="M 81.81346652052679 110.50000000000001 l -28.416841254473244 16.40647094778901 a53.81294189557799,53.81294189557799 0 0,0 -0.45501823860466073,-0.8039736286089019 l 28.694292858099285 -15.916240549080987" fill="#a0ff22" stroke="none" /><path d="M 80.28708602549918 107.23885506374661 l -21.947745751146254 8.059516247776415 a44.38074732991079,44.38074732991079 0 0,0 -0.2564780928228902,-0.7174148727712129 l 22.08286401401309 -7.68156641862428" fill="#ffdd14" stroke="none" /><path d="M 79.73907114497094 105.5222062557868 l -22.217384934090727 6.055447060108799 a44.027823006253584,44.027823006253584 0 0,0 -0.1924865375829276,-0.7309027357144591 l 22.318060952478387 -5.6731638200215375" fill="#ffd814" stroke="none" /><path d="M 79.64726062577567 105.17358676015961 l -22.64797564961677 5.757026845912727 a44.36822969611079,44.36822969611079 0 0,0 -0.18130226353888118,-0.7397751047877685 l 22.743465439671947 -5.367395916516859" fill="#ffdd14" stroke="none" /><path d="M 79.407916724674 104.11899336999214 l -28.331836408289245 5.667160761013279 a49.89307296493803,49.89307296493803 0 0,0 -0.1607832969987731,-0.841286150451916 l 28.424945997570177 -5.179972045528049" fill="#d4ff1c" stroke="none" /><line stroke="#e1ed5e" stroke-width="0.3" x1="15.003131293944662" x2="10.003315487706104" y1="100.72959589197737" y2="100.7725132973878" /><path d="M 14.003168132696942 100.73817937305945 a86.0,86.0 0 0,1 10.791469493833604,-42.45332614584628" fill="none" id="id118" stroke="none" /><text fill="#e1ed5e" style="font-size:6.75px; font-family:Arial;" text-anchor="middle"><textPath startOffset="22.145653131862435" xlink:href="#id118">October</textPath></text><path d="M 79.00077361379809 99.81974689727619 l -20.35966671870307 -0.17476325217772762 a41.360416771053025,41.360416771053025 0 0,0 0.012188655633111542,-0.7099280848538758 l 20.353666631471295 0.5242382530006557" fill="#ffb110" stroke="none" /><path d="M 79.2786578344484 96.59031103205396 l -56.259354113211224 -9.257455310133837 a78.01592237309524,78.01592237309524 0 0,0 0.2287916579932738,-1.319609484288078 l 56.092147637725716 10.221857827342507" fill="#44ffeb" stroke="none" /><path d="M 79.34024301695615 96.23510406497455 l -21.293299281264186 -3.880348446165538 a42.64397602902815,42.64397602902815 0 0,0 0.13742266522452662,-0.7190534537456995 l 21.2235503237575 4.245304464944552" fill="#ffc412" stroke="none" /><path d="M 80.5471966667186 92.08871423366112 l -26.32213535309553 -10.704983296793685 a49.41569068193334,49.41569068193334 0 0,0 0.3263180558077959,-0.7830445420216038 l 26.134491452751256 11.155260348256553" fill="#daff1b" stroke="none" /><path d="M 81.46374523516351 90.13048839642627 l -13.764244515618776 -7.3286849304115 a36.59371828317359,36.59371828317359 0 0,0 0.2999894655863858,-0.5519468281612702 l 13.63640970041704 7.56388659204739" fill="#ff6809" stroke="none" /><line stroke="#e1ed5e" stroke-width="0.3" x1="26.387840678322718" x2="22.05771365940052" y1="57.49999999999999" y2="54.99999999999999" /><path d="M 25.521815274538284 56.99999999999999 a86.0,86.0 0 0,1 29.574782752854787,-30.34633250058573" fill="none" id="id119" stroke="none" /><text fill="#e1ed5e" style="font-size:6.75px; font-family:Arial;" text-anchor="middle"><textPath startOffset="21.40746469413373" xlink:href="#id119">November</textPath></text><path d="M 82.18462484594161 88.88188828441811 l -24.945042700094945 -15.567551572240506 a50.40414625973568,50.40414625973568 0 0,0 0.4643957414266631,-0.7301072396051314 l 24.67412926704239 15.993472486524308" fill="#cdff1d" stroke="none" /><path d="M 82.576782715395 88.27688183743585 l -23.466777564690293 -15.789495234531284 a49.28423251622603,49.28423251622603 0 0,0 0.47831582857082466,-0.6978770885265506 l 23.192271999304154 16.19000705812787" fill="#dcff1b" stroke="none" /><path d="M 82.98947788004972 87.6856937992154 l -21.166079895676575 -15.322609562932922 a47.1301607719556,47.1301607719556 0 0,0 0.48004981932434443,-0.6512797761507444 l 20.89992805676841 15.68369564835253" fill="#faff18" stroke="none" /><path d="M 83.2033758604659 87.39550010848427 l -32.909037552887966 -24.695555298457084 a62.14456469761883,62.14456469761883 0 0,0 0.6476292905833921,-0.8477675305531727 l 32.480256284950265 25.25684374225114" fill="#3cff2e" stroke="none" /><path d="M 84.10781606972428 86.27271002978789 l -11.136924837990348 -9.61981042368283 a35.71638024225533,35.71638024225533 0 0,0 0.40476682538593783,-0.46055034526789546 l 10.970146948645818 9.809573046762026" fill="#ff5a08" stroke="none" /><path d="M 84.58840730492382 85.73525988315684 l -21.99678548551316 -20.359896252451666 a50.97305368337163,50.97305368337163 0 0,0 0.5998901359282452,-0.6370625358051323 l 21.644039515848643 20.734500248201307" fill="#c5ff1e" stroke="none" /><path d="M 85.34317274990677 84.96080404539775 l -20.43903611079792 -20.972251630483406 a50.284629681640425,50.284629681640425 0 0,0 0.6233558402002563,-0.5971607940322707 l 20.076007784732365 21.320024554821245" fill="#cfff1d" stroke="none" /><path d="M 85.86807049272753 84.46653392183569 l -19.88781098631269 -21.860188105654917 a50.55322063400056,50.55322063400056 0 0,0 0.6469246852890139,-0.5784840427210013 l 19.509621274200285 22.19836767825932" fill="#cbff1d" stroke="none" /><path d="M 86.40962598614128 83.9905735841838 l -23.945251202145226 -28.20744570664937 a58.00047362436607,58.00047362436607 0 0,0 0.764572368094751,-0.637833462423219 l 23.457504499888564 28.61434135298447" fill="#6dff28" stroke="none" /><path d="M 87.25179093698888 83.31218511350988 l -15.679505914773658 -20.52497656134033 a46.828696610069045,46.828696610069045 0 0,0 0.6429959381294568,-0.4825161392593202 l 15.32485698773345 20.79111172786365" fill="#feff18" stroke="none" /><path d="M 88.12776184653039 82.6780497279521 l -19.759133126547788 -28.82916574048082 a55.95059569170104,55.95059569170104 0 0,0 0.7969062311701132,-0.5361940771263676 l 19.261330607280687 29.1641094916643" fill="#86ff25" stroke="none" /><path d="M 88.4268655584334 82.4767994020092 l -11.398673820243053 -17.25904498143436 a41.68343294841233,41.68343294841233 0 0,0 0.600468445892648,-0.38921639197366603 l 11.100719742093379 17.452175215111932" fill="#ffb610" stroke="none" /><line stroke="#e1ed5e" stroke-width="0.3" x1="56.869717070023135" x2="54.33264160355391" y1="26.7553504044142" y2="22.446841604673864" /><path d="M 56.362301976729285 25.89364864446614 a86.0,86.0 0 0,1 42.16139366436587,-11.88097634709845" fill="none" id="id120" stroke="none" /><text fill="#e1ed5e" style="font-size:6.75px; font-family:Arial;" text-anchor="middle"><textPath startOffset="22.145653131862474" xlink:href="#id120">December</textPath></text><path d="M 89.34428304082924 81.90426304109057 l -14.672370532101175 -24.916892850091156 a49.91591268374897,49.91591268374897 0 0,0 0.7421011387375732,-0.42845229221606346 l 14.242476925503201 25.165092039583392" fill="#d4ff1c" stroke="none" /><path d="M 90.28995756902619 81.37971332152246 l -14.050271624601871 -26.943248437929565 a51.38665445739439,51.38665445739439 0 0,0 0.7856598054037974,-0.4011634946869303 l 13.58568459748449 27.18046988428933" fill="#c0ff1e" stroke="none" /><path d="M 90.93487009805054 81.0573650232925 l -18.149605252115826 -37.92569449978083 a63.04481506795263,63.04481506795263 0 0,0 0.9802306500747251,-0.45879743898203523 l 17.49588588816958 38.23166817033341" fill="#32ff2f" stroke="none" /><path d="M 91.5904679813234 80.7573450057729 l -12.48931727484062 -28.57800206949196 a52.18790227436784,52.18790227436784 0 0,0 0.8239846616482694,-0.3517100549009858 l 11.99689753802192 28.78818677405235" fill="#b5ff1f" stroke="none" /><path d="M 92.25597844496254 80.48000691201159 l -7.901937027790189 -19.91804323734709 a42.42823033281073,42.42823033281073 0 0,0 0.6793118043430647,-0.26277239919954015 l 7.558852960953595 20.05075552468467" fill="#ffc111" stroke="none" /><path d="M 93.27111125876988 80.10723608172694 l -10.072059388268132 -29.776253893746958 a52.43360743321837,52.43360743321837 0 0,0 0.8551103966181255,-0.2810917720190224 l 9.559426254002245 29.944766587168008" fill="#b2ff20" stroke="none" /><path d="M 93.95794788825049 79.88797359093562 l -4.19785430710309 -13.973291710225858 a35.59023173231771,35.59023173231771 0 0,0 0.5866286843409322,-0.17075906039359692 l 3.9573656103805335 14.043294464921976" fill="#ff5808" stroke="none" /><path d="M 94.6519064749342 79.69241777938228 l -7.809202417860571 -29.652813555873426 a51.663871154544566,51.663871154544566 0 0,0 0.859575386327807,-0.21850070186112944 l 7.2990217383073865 29.78249948956982" fill="#bcff1f" stroke="none" /><path d="M 95.70440661134978 79.44403061299748 l -8.417091664770576 -40.27883063740955 a62.148895849223855,62.148895849223855 0 0,0 1.0461834810985677,-0.20926599629691967 l 7.724411698141031 40.417386030369336" fill="#3cff2e" stroke="none" /><path d="M 96.76829788921471 79.25015418208739 l -6.508576495577042 -41.78973003934953 a63.293535023221814,63.293535023221814 0 0,0 1.0750102342916161,-0.15798948443032074 l 5.790241155677742 41.89530059707874" fill="#2fff2f" stroke="none" /><path d="M 99.63950707515114 79.00309439819443 l -0.256595656514457 -14.945410592805027 a35.947613157908215,35.947613157908215 0 0,0 0.6170885813633055,-0.005296963297622658 l 3.6611093217450315e-15 14.947613157908215" fill="#ff5e08" stroke="none" /></svg>